<svg width="512" height="512" viewBox="0 0 512 512" fill="none" xmlns="http://www.w3.org/2000/svg">
<path fill-rule="evenodd" clip-rule="evenodd" d="M255 429C263.837 429 271 421.837 271 413L271 100C271 91.1635 263.837 84 255 84C246.163 84 239 91.1635 239 100L239 413C239 421.837 246.163 429 255 429Z" fill="#444444"/>
<path fill-rule="evenodd" clip-rule="evenodd" d="M429 256C429 247.163 421.837 240 413 240L100 240C91.1635 240 84 247.163 84 256C84 264.837 91.1635 272 100 272L413 272C421.837 272 429 264.837 429 256Z" fill="#444444"/>
</svg>
