<svg width="24" height="24" viewBox="0 0 24 24" fill="none" xmlns="http://www.w3.org/2000/svg">
<path fill-rule="evenodd" clip-rule="evenodd" d="M17.0003 1.00031H15.0001V4.00003H9.00128V1.00031H7.00102V4.00003H3.00049V7.00003V8.00003V18V20H21.0005V18H21.0004V8.00003H21.0005V4.00003H17.0003V1.00031ZM19.0001 18V8.00003H6.50049H5.00076V18L19.0001 18ZM9.00049 12H7.00049V10H9.00049V12ZM9.00049 16H7.00049V14H9.00049V16ZM13.0005 16H11.0005V14H13.0005V16ZM17.0005 12H15.0005V10H17.0005V12ZM13.0005 12H11.0005V10H13.0005V12ZM17.0005 16H15.0005V14H17.0005V16Z" fill="#444444"/>
</svg>
