<svg width="24" height="24" viewBox="0 0 24 24" fill="none" xmlns="http://www.w3.org/2000/svg">
<path fill-rule="evenodd" clip-rule="evenodd" d="M19 7H5C4.44772 7 4 7.44772 4 8V18C4 18.5523 4.44772 19 5 19H19C19.5523 19 20 18.5523 20 18V8C20 7.44772 19.5523 7 19 7ZM5 6C3.89543 6 3 6.89543 3 8V18C3 19.1046 3.89543 20 5 20H19C20.1046 20 21 19.1046 21 18V8C21 6.89543 20.1046 6 19 6H5Z" fill="#444444"/>
<path d="M6 4H7V9H6V4Z" fill="#444444"/>
<path d="M14 4H15V9H14V4Z" fill="#444444"/>
<path d="M9 4H10V9H9V4Z" fill="#444444"/>
<path d="M17 4H18V9H17V4Z" fill="#444444"/>
<path d="M7 11H9V13H7V11Z" fill="#444444"/>
<path d="M7 15H9V17H7V15Z" fill="#444444"/>
<path d="M11 11H13V13H11V11Z" fill="#444444"/>
<path d="M11 15H13V17H11V15Z" fill="#444444"/>
<path d="M15 11H17V13H15V11Z" fill="#444444"/>
<path d="M15 15H17V17H15V15Z" fill="#444444"/>
</svg>
