<svg width="72" height="72" viewBox="0 0 72 72" fill="none" xmlns="http://www.w3.org/2000/svg">
<path d="M55.6 23.1C55.6 20.1 53.2 17.7 50.3 17.7C48.9 17.7 47.6 18.3 46.6 19.2C46.6 19 46.6 18.7 46.6 18.5C46.6 13 42.3 8.5 36.9 8.5C33 8.5 29.6 10.9 28.1 14.3C27.1 13.8 26 13.5 24.8 13.5C20.8 13.5 17.5 16.8 17.5 21C17.5 25.1 20.8 28.5 24.8 28.5H50.7C53.5 28.3 55.6 26 55.6 23.1Z" fill="white" stroke="#333333" stroke-miterlimit="10" stroke-linecap="round" stroke-linejoin="round"/>
<path d="M63.5 60.5H9.5C8.4 60.5 7.5 59.6 7.5 58.5C7.5 57.4 8.4 56.5 9.5 56.5H63.5C64.6 56.5 65.5 57.4 65.5 58.5C65.5 59.6 64.6 60.5 63.5 60.5Z" fill="#EFEFEF" stroke="#333333" stroke-miterlimit="10" stroke-linecap="round" stroke-linejoin="round"/>
<path d="M26.5 24.5H15.5C13.8 24.5 12.5 25.8 12.5 27.5V56.5H60.5V27.5C60.5 25.8 59.2 24.5 57.5 24.5H45.5" fill="white"/>
<path d="M26.5 24.5H15.5C13.8 24.5 12.5 25.8 12.5 27.5V56.5H60.5V27.5C60.5 25.8 59.2 24.5 57.5 24.5H45.5" stroke="#333333" stroke-miterlimit="10" stroke-linecap="round" stroke-linejoin="round"/>
<path d="M46.9 39.7C44.1 36.9 40.1 35.1 35.5 35.1C30.9 35.1 26.9 36.9 24.1 39.7H46.9Z" fill="url(#paint0_linear)" stroke="#333333" stroke-miterlimit="10" stroke-linecap="round" stroke-linejoin="round"/>
<path d="M33.7 35.7V31.9H37.2V35.7L35.5 37.9" fill="#EFEFEF"/>
<path d="M35.5 32.6C38.4823 32.6 40.9 30.1824 40.9 27.2C40.9 24.2177 38.4823 21.8 35.5 21.8C32.5176 21.8 30.1 24.2177 30.1 27.2C30.1 30.1824 32.5176 32.6 35.5 32.6Z" fill="white" stroke="#333333" stroke-miterlimit="10" stroke-linecap="round" stroke-linejoin="round"/>
<path d="M40.9 27.1C40.8 24.2 38.4 21.8 35.5 21.8C32.5 21.8 30.1 24.2 30.1 27.2C30.1 27.4 30.1 27.6 30.1 27.9C30.5 28 30.9 28.1 31.3 28.1C33.5 28.1 35.3 26.6 35.8 24.6C36.5 26.2 38.1 27.3 40 27.3C40.3 27.2 40.6 27.1 40.9 27.1Z" fill="#AAAAAA" stroke="#333333" stroke-linecap="round" stroke-linejoin="round"/>
<path d="M33.7 35.2V32.4" stroke="#333333" stroke-miterlimit="10" stroke-linecap="round" stroke-linejoin="round"/>
<path d="M37.2 35.2V32.4" stroke="#333333" stroke-miterlimit="10" stroke-linecap="round" stroke-linejoin="round"/>
<path d="M26.5 43.5H17.5V52.5H26.5V43.5Z" fill="#BDECFF" stroke="#333333" stroke-miterlimit="10" stroke-linecap="round" stroke-linejoin="round"/>
<path d="M54.5 44H30.5C30.2 44 30 43.8 30 43.5C30 43.2 30.2 43 30.5 43H54.5C54.8 43 55 43.2 55 43.5C55 43.8 54.8 44 54.5 44Z" fill="#333333"/>
<path d="M54.5 48H30.5C30.2 48 30 47.8 30 47.5C30 47.2 30.2 47 30.5 47H54.5C54.8 47 55 47.2 55 47.5C55 47.8 54.8 48 54.5 48Z" fill="#333333"/>
<path d="M54.5 52H30.5C30.2 52 30 51.8 30 51.5C30 51.2 30.2 51 30.5 51H54.5C54.8 51 55 51.2 55 51.5C55 51.8 54.8 52 54.5 52Z" fill="#333333"/>
<defs>
<linearGradient id="paint0_linear" x1="24.1027" y1="37.4043" x2="46.8604" y2="37.4043" gradientUnits="userSpaceOnUse">
<stop stop-color="#FF8E3D"/>
<stop offset="1" stop-color="#FF6F3D"/>
</linearGradient>
</defs>
</svg>
