<svg width="224" height="51" viewBox="0 0 224 51" fill="none" xmlns="http://www.w3.org/2000/svg">
<g style="mix-blend-mode:overlay" opacity="0.5">
<path d="M187.09 43.4619C183.885 43.4619 180.773 43.8322 177.809 44.525C172.496 37.6085 163.635 33.0782 153.597 33.0782C150.335 33.0782 147.205 33.5626 144.272 34.4449C139.33 14.7288 119.791 0 96.4258 0C69.3273 0 47.3599 19.8031 47.3599 44.2315C47.3599 44.7354 47.3842 45.2342 47.401 45.7317C43.9524 44.7574 40.2838 44.2315 36.4789 44.2315C16.3329 44.2315 -1.273e-06 58.9521 -1.273e-06 77.1177C-1.273e-06 95.2782 16.3336 110 36.4789 110H187.092C207.475 110 224 95.1044 224 76.731C223.999 58.3563 207.474 43.4619 187.09 43.4619Z" fill="url(#paint0_linear)"/>
</g>
<defs>
<linearGradient id="paint0_linear" x1="112" y1="0" x2="112" y2="110" gradientUnits="userSpaceOnUse">
<stop stop-color="white"/>
<stop offset="1" stop-color="white" stop-opacity="0"/>
</linearGradient>
</defs>
</svg>
