<svg width="128" height="55" viewBox="0 0 128 55" fill="none" xmlns="http://www.w3.org/2000/svg">
<g style="mix-blend-mode:soft-light" opacity="0.6">
<path d="M21.0912 16.8919C22.9229 16.8919 24.7007 17.104 26.3947 17.5008C29.4304 13.5395 34.4939 10.9449 40.2301 10.9449C42.0938 10.9449 43.8828 11.2223 45.5584 11.7277C48.3825 0.435712 59.5475 -8 72.8992 -8C88.3839 -8 100.937 3.34194 100.937 17.3327C100.937 17.6213 100.923 17.907 100.913 18.1919C102.884 17.6339 104.98 17.3327 107.154 17.3327C118.666 17.3327 127.999 25.7635 127.999 36.1674C127.999 46.5684 118.666 55 107.154 55H21.0904C9.44273 55 0 46.4689 0 35.946C0.000798471 25.4223 9.44353 16.8919 21.0912 16.8919Z" fill="url(#paint0_linear)"/>
</g>
<defs>
<linearGradient id="paint0_linear" x1="64" y1="-8" x2="64" y2="55" gradientUnits="userSpaceOnUse">
<stop stop-color="white"/>
<stop offset="1" stop-color="white" stop-opacity="0"/>
</linearGradient>
</defs>
</svg>
