<svg width="72" height="72" viewBox="0 0 72 72" fill="none" xmlns="http://www.w3.org/2000/svg">
<path d="M17.5 39.5V41.5H13C11.6 41.5 10.5 42.5 10.5 43.9V60.9C10.5 62.3 11.7 63.5 13.1 63.5H30.1C31.5 63.5 32.5 62.4 32.5 61V56.5H30.5C28.5 56.5 27 54.9 27 53C27 51.1 28.6 49.5 30.5 49.5H32.5V44C32.5 42.6 31.4 41.5 30 41.5H24.5V39.5C24.5 37.7 22.8 36 21 36C19.2 36 17.5 37.6 17.5 39.5Z" fill="white" stroke="#333333" stroke-miterlimit="10" stroke-linecap="round" stroke-linejoin="round"/>
<path d="M34.5 18.5826H32.5V13C32.5 11.6 31.5 10.5 30.1 10.5H13.1C11.7 10.5 10.5 11.7 10.5 13.1V30.1C10.5 31.5 11.6 32.5 13 32.5H17.5V30.5C17.5 28.5 19.1 27 21 27C22.9 27 24.5 28.6 24.5 30.5V32.5H30C31.4 32.5 32.5 31.4 32.5 30V25.5H34.5C36.3 25.5 38 23.8 38 22C38 20.2 36.3 18.5826 34.5 18.5826Z" fill="url(#paint0_linear)" stroke="#333333" stroke-miterlimit="10" stroke-linecap="round" stroke-linejoin="round"/>
<path d="M55.5 34.5V32.5H59.9839C61.3839 32.5 62.4839 31.5 62.4839 30.1V13.1C62.4839 11.7 61.2839 10.5 59.8839 10.5H43.1C41.7 10.5 40.5 11.7 40.5 13.1V18.5H42.5C44.5 18.5 46 20.1 46 22C46 23.9 44.4 25.5 42.5 25.5H40.5V30.1C40.5 31.5 41.8 32.5 43.2 32.5H48.5V34.5C48.5 36.3 50.2 38 52 38C53.8 38 55.5 36.3 55.5 34.5Z" fill="#EFEFEF" stroke="#333333" stroke-miterlimit="10" stroke-linecap="round" stroke-linejoin="round"/>
<path d="M38.2 56.5H40.2V61C40.2 62.4 41.5 63.7 42.9 63.7H59.9C61.3 63.7 62.5 62.5 62.5 61.1V44.1C62.5 42.7 61.3 41.5 59.9 41.5H55.2V43.5C55.2 45.5 53.6 47 51.7 47C49.8 47 48.2 45.4 48.2 43.5V41.5H42.9C41.5 41.5 40.2 42.6 40.2 44V49.5H38.2C36.4 49.5 34.7 51.2 34.7 53C34.7 54.8 36.4 56.5 38.2 56.5Z" fill="#BDECFF" stroke="#333333" stroke-miterlimit="10" stroke-linecap="round" stroke-linejoin="round"/>
<defs>
<linearGradient id="paint0_linear" x1="10.5119" y1="21.631" x2="38.0119" y2="21.631" gradientUnits="userSpaceOnUse">
<stop stop-color="#FF8E3D"/>
<stop offset="0.3649" stop-color="#FF873D"/>
<stop offset="0.8939" stop-color="#FF743D"/>
<stop offset="1" stop-color="#FF6F3D"/>
</linearGradient>
</defs>
</svg>
