<svg width="32" height="32" viewBox="0 0 32 32" fill="none" xmlns="http://www.w3.org/2000/svg">
<path d="M22 10H10V11H22V10Z" fill="#444444"/>
<path d="M22 13H10V14H22V13Z" fill="#444444"/>
<path d="M16 16H10V17H16V16Z" fill="#444444"/>
<path fill-rule="evenodd" clip-rule="evenodd" d="M8.91421 21L11.5 23.5858L14.0858 21H25C25.5523 21 26 20.5523 26 20V8C26 7.44771 25.5523 7 25 7H7C6.44772 7 6 7.44772 6 8V20C6 20.5523 6.44772 21 7 21H8.91421ZM11.5 25L8.5 22H7C5.89543 22 5 21.1046 5 20V8C5 6.89543 5.89543 6 7 6H25C26.1046 6 27 6.89543 27 8V20C27 21.1046 26.1046 22 25 22H14.5L11.5 25Z" fill="#444444"/>
</svg>
