<svg width="512" height="512" viewBox="0 0 512 512" fill="none" xmlns="http://www.w3.org/2000/svg">
<path fill-rule="evenodd" clip-rule="evenodd" d="M68 108V404H444V108H68ZM56 76C44.9543 76 36 84.9543 36 96V416C36 427.046 44.9543 436 56 436H456C467.046 436 476 427.046 476 416V96C476 84.9543 467.046 76 456 76H56Z" fill="#444444"/>
<path fill-rule="evenodd" clip-rule="evenodd" d="M49.9492 86.424C56.6187 80.6273 66.7246 81.3348 72.5213 88.0043L256.001 299.11L439.48 88.0043C445.277 81.3348 455.383 80.6273 462.052 86.424C468.722 92.2207 469.429 102.327 463.632 108.996L270.341 331.391C262.767 340.106 249.235 340.106 241.66 331.391L48.3688 108.996C42.5721 102.327 43.2796 92.2207 49.9492 86.424Z" fill="#444444"/>
<path fill-rule="evenodd" clip-rule="evenodd" d="M207.016 266.335L60.3489 412.585L36.096 391.915L182.763 245.665L207.016 266.335Z" fill="#444444"/>
<path fill-rule="evenodd" clip-rule="evenodd" d="M451.849 412.597L305.183 266.347L329.063 245.64L475.73 391.89L451.849 412.597Z" fill="#444444"/>
</svg>
