<svg width="20" height="20" viewBox="0 0 20 20" fill="none" xmlns="http://www.w3.org/2000/svg">
<path d="M5 7H6V8H5V7Z" fill="#444444"/>
<path d="M7 7H8V8H7V7Z" fill="#444444"/>
<path d="M9 7H10V8H9V7Z" fill="#444444"/>
<path d="M11 7H12V8H11V7Z" fill="#444444"/>
<path d="M13 7H14V8H13V7Z" fill="#444444"/>
<path d="M15 7H16V8H15V7Z" fill="#444444"/>
<path d="M5 9H6V10H5V9Z" fill="#444444"/>
<path d="M7 9H8V10H7V9Z" fill="#444444"/>
<path d="M9 9H10V10H9V9Z" fill="#444444"/>
<path d="M11 9H12V10H11V9Z" fill="#444444"/>
<path d="M13 9H14V10H13V9Z" fill="#444444"/>
<path d="M15 9H16V10H15V9Z" fill="#444444"/>
<path d="M5 11H6V12H5V11Z" fill="#444444"/>
<path d="M7 11H8V12H7V11Z" fill="#444444"/>
<path d="M9 11H10V12H9V11Z" fill="#444444"/>
<path d="M11 11H12V12H11V11Z" fill="#444444"/>
<path d="M5 13H6V14H5V13Z" fill="#444444"/>
<path d="M7 13H8V14H7V13Z" fill="#444444"/>
<path d="M13 11H14V12H13V11Z" fill="#444444"/>
<path d="M15 11H16V12H15V11Z" fill="#444444"/>
<path fill-rule="evenodd" clip-rule="evenodd" d="M16 3H15V4H13V3H12V4H9V3H8V4H6V3H5V4H4C3.44772 4 3 4.44771 3 5V15C3 15.5523 3.44772 16 4 16H17C17.5523 16 18 15.5523 18 15V5C18 4.44772 17.5523 4 17 4H16V3ZM5 6V5H4V15H17V5H16V6H15V5H13V6H12V5H9V6H8V5H6V6H5Z" fill="#444444"/>
</svg>
