<svg width="72" height="72" viewBox="0 0 72 72" fill="none" xmlns="http://www.w3.org/2000/svg">
<path fill-rule="evenodd" clip-rule="evenodd" d="M57.2 53H14.9C13.3 53 12 51.7 12 50.1V28.9C12 27.3 13.3 26 14.9 26H57.1C58.7 26 60 27.3 60 28.9V50.1C60 51.7 58.8 53 57.2 53Z" fill="white" stroke="#333333" stroke-miterlimit="10"/>
<path d="M55.5 29.6391V21.5604L52.1089 20.7625L50.9121 17.9698L52.8071 14.9777L47.122 9.29265L44.2297 11.0879L41.437 9.89108L40.6391 6.5H32.5604L31.7625 9.89108L28.9698 11.0879L25.9777 9.19291L20.2927 14.878L22.0879 17.7703L20.8911 20.563L17.5 21.3609V29.4396L20.8911 30.2375L22.0879 33.0302L20.1929 36.0223L25.878 41.7073L28.7703 39.9121L31.563 41.1089L32.3609 44.5H40.4396L41.2375 41.1089L44.0302 39.9121L47.0223 41.8071L52.7073 36.122L50.9121 33.2297L52.1089 30.437L55.5 29.6391ZM36.4501 32.9304C32.4606 32.9304 29.1693 29.6391 29.1693 25.6496C29.1693 21.6601 32.4606 18.3688 36.4501 18.3688C40.4396 18.3688 43.731 21.6601 43.731 25.6496C43.8307 29.6391 40.5394 32.9304 36.4501 32.9304Z" fill="#F2F2F2" stroke="#333333" stroke-miterlimit="10" stroke-linecap="round" stroke-linejoin="round"/>
<path fill-rule="evenodd" clip-rule="evenodd" d="M57.1686 63.5H14.0686C12.6686 63.5 11.4686 62.5 11.1686 61.2L7.56857 45.2C7.16857 43.3 8.56857 41.5 10.4686 41.5H26.4686L30.5686 36.6C31.1686 35.9 31.9686 35.5 32.8686 35.5H61.1686C63.0686 35.5 64.4686 37.2 64.1686 39L60.2686 61C59.8686 62.5 58.6686 63.5 57.1686 63.5Z" fill="#BDECFF" stroke="#333333" stroke-miterlimit="10"/>
</svg>
