<svg width="72" height="72" viewBox="0 0 72 72" fill="none" xmlns="http://www.w3.org/2000/svg">
<path d="M55.5 62.5H11.5C9.8 62.5 8.5 61.2 8.5 59.5V28.5C8.5 26.8 9.8 25.5 11.5 25.5H55.5C57.2 25.5 58.5 26.8 58.5 28.5V59.5C58.5 61.2 57.2 62.5 55.5 62.5Z" fill="white" stroke="#333333" stroke-miterlimit="10" stroke-linecap="round" stroke-linejoin="round"/>
<path d="M58.5 32.5H8.5V28.5C8.5 26.8 9.8 25.5 11.5 25.5H55.5C57.2 25.5 58.5 26.8 58.5 28.5V32.5Z" fill="#EFEFEF" stroke="#333333" stroke-miterlimit="10" stroke-linecap="round" stroke-linejoin="round"/>
<path d="M13 30C13.5523 30 14 29.5523 14 29C14 28.4477 13.5523 28 13 28C12.4477 28 12 28.4477 12 29C12 29.5523 12.4477 30 13 30Z" fill="#333333"/>
<path d="M17 30C17.5523 30 18 29.5523 18 29C18 28.4477 17.5523 28 17 28C16.4477 28 16 28.4477 16 29C16 29.5523 16.4477 30 17 30Z" fill="#333333"/>
<path d="M21 30C21.5523 30 22 29.5523 22 29C22 28.4477 21.5523 28 21 28C20.4477 28 20 28.4477 20 29C20 29.5523 20.4477 30 21 30Z" fill="#333333"/>
<path d="M25 25.4L33 19.4L41 25.4" stroke="#333333" stroke-miterlimit="10" stroke-linecap="round" stroke-linejoin="round"/>
<path d="M61.5 45H33.5V65H61.5V45Z" fill="white" stroke="#333333" stroke-miterlimit="10" stroke-linecap="round" stroke-linejoin="round" stroke-dasharray="2 2"/>
<path d="M33.5 46C34.3284 46 35 45.3284 35 44.5C35 43.6716 34.3284 43 33.5 43C32.6716 43 32 43.6716 32 44.5C32 45.3284 32.6716 46 33.5 46Z" fill="#333333"/>
<path d="M61.5 46C62.3284 46 63 45.3284 63 44.5C63 43.6716 62.3284 43 61.5 43C60.6716 43 60 43.6716 60 44.5C60 45.3284 60.6716 46 61.5 46Z" fill="#333333"/>
<path d="M33.5 67C34.3284 67 35 66.3284 35 65.5C35 64.6716 34.3284 64 33.5 64C32.6716 64 32 64.6716 32 65.5C32 66.3284 32.6716 67 33.5 67Z" fill="#333333"/>
<path d="M61.5 67C62.3284 67 63 66.3284 63 65.5C63 64.6716 62.3284 64 61.5 64C60.6716 64 60 64.6716 60 65.5C60 66.3284 60.6716 67 61.5 67Z" fill="#333333"/>
<path d="M48.8 59L44.1 54L38 60.3C38 61.2 38.8 62 39.7 62H55.4C57.1 62 57.1 61.3 57.1 60.3L52.1 55.6L48.8 59Z" fill="url(#paint0_linear)"/>
<path d="M49.5 54C50.3284 54 51 53.3284 51 52.5C51 51.6716 50.3284 51 49.5 51C48.6716 51 48 51.6716 48 52.5C48 53.3284 48.6716 54 49.5 54Z" fill="url(#paint1_linear)"/>
<path d="M55.6095 49.5H39.291C38.296 49.5 37.5 50.2934 37.5 51.2851V59.7149C37.5 60.7066 38.296 61.5 39.291 61.5H55.709C56.704 61.5 57.5 60.7066 57.5 59.7149V51.2851C57.4005 50.2934 56.6045 49.5 55.6095 49.5Z" stroke="#333333" stroke-miterlimit="10" stroke-linecap="round" stroke-linejoin="round"/>
<path d="M35 16V13.4H32C32 13.4 32 16.5 32 16.4C32 16.3 34.1 16.9 34.1 18.4C34.1 19.5 33.2 20.4 32.1 20.4C31.1 20.4 30.3 19.7 30.1 18.7C30.1 18.8 30.1 19 30.1 19.1C30.1 20.9 31.6 22.4 33.4 22.4C35.2 22.4 37 20.9 37 18.9C37 16.4 35 16 35 16Z" stroke="#333333" stroke-miterlimit="10" stroke-linecap="round" stroke-linejoin="round"/>
<path d="M36 11.4L35 13.4H32L31 11.4V6H36V11.4Z" stroke="#333333" stroke-miterlimit="10" stroke-linecap="round" stroke-linejoin="round"/>
<path d="M53.5 37H13.5C13.2 37 13 36.8 13 36.5C13 36.2 13.2 36 13.5 36H53.5C53.8 36 54 36.2 54 36.5C54 36.8 53.8 37 53.5 37Z" fill="#333333"/>
<path d="M53.5 41H13.5C13.2 41 13 40.8 13 40.5C13 40.2 13.2 40 13.5 40H53.5C53.8 40 54 40.2 54 40.5C54 40.8 53.8 41 53.5 41Z" fill="#333333"/>
<path d="M25.5 45H13.5C13.2 45 13 44.8 13 44.5C13 44.2 13.2 44 13.5 44H25.5C25.8 44 26 44.2 26 44.5C26 44.8 25.8 45 25.5 45Z" fill="#333333"/>
<path d="M25.5 49H13.5C13.2 49 13 48.8 13 48.5C13 48.2 13.2 48 13.5 48H25.5C25.8 48 26 48.2 26 48.5C26 48.8 25.8 49 25.5 49Z" fill="#333333"/>
<path d="M25.5 53H13.5C13.2 53 13 52.8 13 52.5C13 52.2 13.2 52 13.5 52H25.5C25.8 52 26 52.2 26 52.5C26 52.8 25.8 53 25.5 53Z" fill="#333333"/>
<path d="M25.5 57H13.5C13.2 57 13 56.8 13 56.5C13 56.2 13.2 56 13.5 56H25.5C25.8 56 26 56.2 26 56.5C26 56.8 25.8 57 25.5 57Z" fill="#333333"/>
<defs>
<linearGradient id="paint0_linear" x1="38.0622" y1="58.0408" x2="57.3" y2="58.0408" gradientUnits="userSpaceOnUse">
<stop stop-color="#FF8E3D"/>
<stop offset="1" stop-color="#FF6F3D"/>
</linearGradient>
<linearGradient id="paint1_linear" x1="48" y1="52.5408" x2="51" y2="52.5408" gradientUnits="userSpaceOnUse">
<stop stop-color="#FF8E3D"/>
<stop offset="1" stop-color="#FF6F3D"/>
</linearGradient>
</defs>
</svg>
