<svg width="72" height="72" viewBox="0 0 72 72" fill="none" xmlns="http://www.w3.org/2000/svg">
<path d="M50.5 9.5H4.5C2.8 9.5 1.5 10.8 1.5 12.5V42.5C1.5 44.2 2.8 45.5 4.5 45.5H50.5C52.2 45.5 53.5 44.2 53.5 42.5V12.5C53.5 10.8 52.2 9.5 50.5 9.5Z" fill="white"/>
<path d="M53.5 39.5H1.5V42.5C1.5 44.2 2.8 45.5 4.5 45.5H50.5C52.2 45.5 53.5 44.2 53.5 42.5V39.5Z" fill="#EFEFEF"/>
<path d="M36 45.5H20V53.5H36V45.5Z" fill="white"/>
<path d="M40.5 56.5H15.5C14.7 56.5 14 55.8 14 55C14 54.2 14.7 53.5 15.5 53.5H40.5C41.3 53.5 42 54.2 42 55C42 55.8 41.3 56.5 40.5 56.5Z" fill="#EFEFEF"/>
<path d="M53.5 28.5V12.5C53.5 10.8 52.2 9.5 50.5 9.5H4.5C2.8 9.5 1.5 10.8 1.5 12.5V42.5C1.5 44.2 2.8 45.5 4.5 45.5H27.5" stroke="#333333" stroke-miterlimit="10" stroke-linecap="round" stroke-linejoin="round"/>
<path d="M27.5 39.5H1.5V42.5C1.5 44.2 2.8 45.5 4.5 45.5H27.5" stroke="#333333" stroke-miterlimit="10" stroke-linecap="round" stroke-linejoin="round"/>
<path d="M28 53.5H20V45.5H28" stroke="#333333" stroke-miterlimit="10" stroke-linecap="round" stroke-linejoin="round"/>
<path d="M28 56.5H15.5C14.7 56.5 14 55.8 14 55C14 54.2 14.7 53.5 15.5 53.5H28" stroke="#333333" stroke-miterlimit="10" stroke-linecap="round" stroke-linejoin="round"/>
<path d="M68 62.5H29C28.2 62.5 27.5 61.8 27.5 61C27.5 60.2 28.2 59.5 29 59.5H68C68.8 59.5 69.5 60.2 69.5 61C69.5 61.8 68.8 62.5 68 62.5Z" fill="#EFEFEF" stroke="#333333" stroke-miterlimit="10" stroke-linecap="round" stroke-linejoin="round"/>
<path d="M63.5 31.5H34.5C32.8 31.5 31.5 32.8 31.5 34.5V57.5H66.5V34.5C66.5 32.8 65.2 31.5 63.5 31.5Z" fill="white" stroke="#333333" stroke-miterlimit="10"/>
<path fill-rule="evenodd" clip-rule="evenodd" d="M48.3564 44.901L44.297 42.8218C43.9999 42.6238 43.9999 42.4257 44.297 42.2277L48.3564 40.1485C48.7524 39.9505 49.3465 39.9505 49.6435 40.1485L53.703 42.2277C54.099 42.4257 54.099 42.6238 53.703 42.8218L49.6435 44.901C49.2475 45.099 48.6534 45.099 48.3564 44.901ZM44.297 45.297L48.3564 47.3762C48.6534 47.5743 49.2475 47.5743 49.6435 47.3762L53.703 45.297C54.099 45.099 54.099 44.901 53.703 44.703L52.3168 44.0099L49.6435 45.396C49.3465 45.5941 48.7524 45.5941 48.3564 45.396L45.6831 44.0099L44.297 44.703C43.9999 44.802 43.9999 45.099 44.297 45.297ZM53.703 47.1782L52.3169 46.4851L49.6436 47.7723C49.3466 47.9703 48.7525 47.9703 48.3565 47.7723L45.6832 46.4851L44.297 47.1782C43.901 47.3762 43.901 47.5743 44.297 47.7723L48.3565 49.8515C48.6535 50.0495 49.2475 50.0495 49.5446 49.8515L53.604 47.7723C54.0991 47.6733 54.0991 47.3762 53.703 47.1782Z" fill="#FF6F3D"/>
<path fill-rule="evenodd" clip-rule="evenodd" d="M26.3564 23.901L22.297 21.8218C22 21.6238 22 21.4257 22.297 21.2277L26.3564 19.1485C26.7524 18.9505 27.3465 18.9505 27.6435 19.1485L31.703 21.2277C32.099 21.4257 32.099 21.6238 31.703 21.8218L27.6435 23.901C27.2475 24.099 26.6534 24.099 26.3564 23.901ZM22.297 24.297L26.3564 26.3762C26.6534 26.5743 27.2475 26.5743 27.6435 26.3762L31.703 24.297C32.099 24.099 32.099 23.901 31.703 23.703L30.3168 23.0099L27.6435 24.396C27.3465 24.5941 26.7524 24.5941 26.3564 24.396L23.6831 23.0099L22.297 23.703C22 23.802 22 24.099 22.297 24.297ZM31.703 26.1782L30.3169 25.4851L27.6436 26.7723C27.3466 26.9703 26.7525 26.9703 26.3565 26.7723L23.6832 25.4851L22.297 26.1782C21.901 26.3762 21.901 26.5743 22.297 26.7723L26.3565 28.8515C26.6535 29.0495 27.2476 29.0495 27.5446 28.8515L31.604 26.7723C32.0991 26.6733 32.0991 26.3762 31.703 26.1782Z" fill="#FF6F3D"/>
</svg>
