<svg width="72" height="72" viewBox="0 0 72 72" fill="none" xmlns="http://www.w3.org/2000/svg">
<path fill-rule="evenodd" clip-rule="evenodd" d="M56.7 51.5H14.4C12.8 51.5 11.5 50.2 11.5 48.6V27.4C11.5 25.8 12.8 24.5 14.4 24.5H56.6C58.2 24.5 59.5 25.8 59.5 27.4V48.6C59.5 50.2 58.3 51.5 56.7 51.5Z" fill="#F5F5F5" stroke="#333333" stroke-miterlimit="10"/>
<path fill-rule="evenodd" clip-rule="evenodd" d="M54.5 53.5H16.5V6.5H46.5L54.5 14.5V53.5Z" fill="white" stroke="#333333" stroke-miterlimit="10" stroke-linecap="round" stroke-linejoin="round"/>
<path fill-rule="evenodd" clip-rule="evenodd" d="M57.1686 64.5H14.0686C12.6686 64.5 11.4686 63.5 11.1686 62.2L7.56857 46.2C7.16857 44.3 8.56857 42.5 10.4686 42.5H26.4686L30.5686 37.6C31.1686 36.9 31.9686 36.5 32.8686 36.5H61.1686C63.0686 36.5 64.4686 38.2 64.1686 40L60.2686 62C59.8686 63.5 58.6686 64.5 57.1686 64.5Z" fill="#BDECFF" stroke="#333333" stroke-miterlimit="10" stroke-linecap="round" stroke-linejoin="round"/>
<path fill-rule="evenodd" clip-rule="evenodd" d="M54.5 14.5H46.5V6.5L54.5 14.5Z" fill="url(#paint0_linear)" stroke="#333333" stroke-miterlimit="10" stroke-linecap="round" stroke-linejoin="round"/>
<path d="M35.5 11.5H21.5V25.5H35.5V11.5Z" fill="white" stroke="#333333" stroke-miterlimit="10" stroke-linecap="round" stroke-linejoin="round"/>
<path fill-rule="evenodd" clip-rule="evenodd" d="M35.5 25.5H21.5L26.5 19.5L28.5 21.5L31.5 17.5L35.5 22.5V25.5Z" fill="#EFEFEF" stroke="#333333" stroke-miterlimit="10" stroke-linecap="round" stroke-linejoin="round"/>
<path d="M25.5 17C26.3284 17 27 16.3284 27 15.5C27 14.6716 26.3284 14 25.5 14C24.6716 14 24 14.6716 24 15.5C24 16.3284 24.6716 17 25.5 17Z" fill="#FF6F3D"/>
<path d="M39.6685 14.5H43.6685" stroke="#333333" stroke-miterlimit="10" stroke-linecap="round" stroke-linejoin="round"/>
<path d="M39.6685 17.5H49.6685" stroke="#333333" stroke-miterlimit="10" stroke-linecap="round" stroke-linejoin="round"/>
<path d="M39.6685 20.5H49.6685" stroke="#333333" stroke-miterlimit="10" stroke-linecap="round" stroke-linejoin="round"/>
<path d="M21.6685 29.5H49.6685" stroke="#333333" stroke-miterlimit="10" stroke-linecap="round" stroke-linejoin="round"/>
<path d="M21.6685 32.5H49.6685" stroke="#333333" stroke-miterlimit="10" stroke-linecap="round" stroke-linejoin="round"/>
<defs>
<linearGradient id="paint0_linear" x1="47.0429" y1="11" x2="55.0429" y2="11" gradientUnits="userSpaceOnUse">
<stop stop-color="#FF8E3D"/>
<stop offset="0.3567" stop-color="#FF883D"/>
<stop offset="0.8477" stop-color="#FF763D"/>
<stop offset="1" stop-color="#FF6F3D"/>
</linearGradient>
</defs>
</svg>
