<svg width="24" height="24" viewBox="0 0 24 24" fill="none" xmlns="http://www.w3.org/2000/svg">
<path fill-rule="evenodd" clip-rule="evenodd" d="M13.7467 18.1766C12.9482 19.7737 12.2151 20 12 20C11.7849 20 11.0518 19.7737 10.2533 18.1766C9.61429 16.8986 9.14295 15.094 9.02739 13H14.9726C14.8571 15.094 14.3857 16.8986 13.7467 18.1766ZM14.9726 11H9.02739C9.14295 8.90602 9.61429 7.10143 10.2533 5.82336C11.0518 4.22632 11.7849 4 12 4C12.2151 4 12.9482 4.22632 13.7467 5.82336C14.3857 7.10143 14.8571 8.90602 14.9726 11ZM16.9753 13C16.8545 15.4337 16.2974 17.6107 15.4627 19.2138C17.861 18.0605 19.5956 15.7464 19.9381 13H16.9753ZM19.9381 11H16.9753C16.8545 8.5663 16.2974 6.38927 15.4627 4.78617C17.861 5.93948 19.5956 8.25357 19.9381 11ZM21.9506 11C21.4489 5.94668 17.1853 2 12 2C6.81465 2 2.5511 5.94668 2.04938 11H2V12V13H2.04938C2.5511 18.0533 6.81465 22 12 22C17.1853 22 21.4489 18.0533 21.9506 13H22V12V11H21.9506ZM4.06189 13C4.40437 15.7464 6.13899 18.0605 8.53731 19.2138C7.70259 17.6107 7.1455 15.4337 7.02469 13H4.06189ZM7.02469 11C7.1455 8.5663 7.70258 6.38927 8.53731 4.78617C6.13899 5.93948 4.40437 8.25357 4.06189 11H7.02469Z" fill="#444444"/>
</svg>
