<svg width="24" height="24" viewBox="0 0 24 24" fill="none" xmlns="http://www.w3.org/2000/svg">
<path fill-rule="evenodd" clip-rule="evenodd" d="M3.5 4.5C3.5 4.22386 3.72386 4 4 4H20C20.2761 4 20.5 4.22386 20.5 4.5C20.5 4.77614 20.2761 5 20 5H4C3.72386 5 3.5 4.77614 3.5 4.5Z" fill="#444444"/>
<path fill-rule="evenodd" clip-rule="evenodd" d="M3.5 8.5C3.5 8.22386 3.72386 8 4 8H20C20.2761 8 20.5 8.22386 20.5 8.5C20.5 8.77614 20.2761 9 20 9H4C3.72386 9 3.5 8.77614 3.5 8.5Z" fill="#444444"/>
<path fill-rule="evenodd" clip-rule="evenodd" d="M3.5 12.5C3.5 12.2239 3.72386 12 4 12H9C9.27614 12 9.5 12.2239 9.5 12.5C9.5 12.7761 9.27614 13 9 13H4C3.72386 13 3.5 12.7761 3.5 12.5Z" fill="#444444"/>
<path fill-rule="evenodd" clip-rule="evenodd" d="M3.5 16.5C3.5 16.2239 3.72386 16 4 16H9C9.27614 16 9.5 16.2239 9.5 16.5C9.5 16.7761 9.27614 17 9 17H4C3.72386 17 3.5 16.7761 3.5 16.5Z" fill="#444444"/>
<path fill-rule="evenodd" clip-rule="evenodd" d="M16.5 20C18.433 20 20 18.433 20 16.5C20 14.567 18.433 13 16.5 13C14.567 13 13 14.567 13 16.5C13 18.433 14.567 20 16.5 20ZM16.5 21C18.9853 21 21 18.9853 21 16.5C21 14.0147 18.9853 12 16.5 12C14.0147 12 12 14.0147 12 16.5C12 18.9853 14.0147 21 16.5 21Z" fill="#444444"/>
<path fill-rule="evenodd" clip-rule="evenodd" d="M19 20.0001L13 14.0001L13.7072 13.293L19.7072 19.293L19 20.0001Z" fill="#444444"/>
</svg>
