<?xml version="1.0" encoding="UTF-8"?>
<svg xmlns="http://www.w3.org/2000/svg" style="display: none;">

<symbol id="onlyoffice-search-icon" viewBox="0 0 512 512">
    <path fill-rule="evenodd" clip-rule="evenodd" d="M223 330C282.094 330 330 282.094 330 223C330 163.906 282.094 116 223 116C163.906 116 116 163.906 116 223C116 282.094 163.906 330 223 330ZM223 362C299.768 362 362 299.768 362 223C362 146.232 299.768 84 223 84C146.232 84 84 146.232 84 223C84 299.768 146.232 362 223 362Z"/>
    <path fill-rule="evenodd" clip-rule="evenodd" d="M296.314 301.685C302.562 295.436 312.693 295.436 318.941 301.685L416.522 399.266C422.77 405.514 422.77 415.645 416.522 421.893C410.273 428.141 400.143 428.141 393.894 421.893L296.314 324.312C290.065 318.064 290.065 307.933 296.314 301.685Z"/>
</symbol>

<symbol id="onlyoffice-hamburger-icon" viewBox="0 0 512 512">
    <path fill-rule="evenodd" clip-rule="evenodd" d="M60 256C60 247.163 67.1634 240 76 240H436C444.837 240 452 247.163 452 256C452 264.837 444.837 272 436 272H76C67.1634 272 60 264.837 60 256Z"/>
    <path fill-rule="evenodd" clip-rule="evenodd" d="M60 386C60 377.163 67.1634 370 76 370H436C444.837 370 452 377.163 452 386C452 394.837 444.837 402 436 402H76C67.1634 402 60 394.837 60 386Z"/>
    <path fill-rule="evenodd" clip-rule="evenodd" d="M60 126C60 117.163 67.1634 110 76 110H436C444.837 110 452 117.163 452 126C452 134.837 444.837 142 436 142H76C67.1634 142 60 134.837 60 126Z"/>
</symbol>

<symbol id="onlyoffice-logo-big" viewBox="0 0 152 27">
    <path fill-rule="evenodd" clip-rule="evenodd" d="M44.6299 92.8476L2.68012 73.4868C-0.893374 71.7965 -0.893374 69.1844 2.68012 67.6478L17.2848 60.8869L44.4745 73.4868C48.048 75.177 53.7967 75.177 57.2148 73.4868L84.4044 60.8869L99.0092 67.6478C102.583 69.338 102.583 71.9502 99.0092 73.4868L57.0594 92.8476C53.7967 94.3841 48.048 94.3841 44.6299 92.8476Z" fill="#FF6F3D"/>
    <path fill-rule="evenodd" clip-rule="evenodd" d="M44.6299 69.0306L2.68012 49.6698C-0.893374 47.9796 -0.893374 45.3674 2.68012 43.8308L16.9741 37.2236L44.6299 49.9771C48.2034 51.6674 53.952 51.6674 57.3701 49.9771L85.0259 37.2236L99.3199 43.8308C102.893 45.5211 102.893 48.1332 99.3199 49.6698L57.3701 69.0306C53.7966 70.7209 48.048 70.7209 44.6299 69.0306Z" fill="#95C038"/>
    <path fill-rule="evenodd" clip-rule="evenodd" d="M44.6299 45.8283L2.68012 26.4675C-0.893374 24.7772 -0.893374 22.1651 2.68012 20.6285L44.6299 1.26767C48.2034 -0.422557 53.952 -0.422557 57.3701 1.26767L99.3199 20.6285C102.893 22.3187 102.893 24.9309 99.3199 26.4675L57.3701 45.8283C53.7966 47.3648 48.048 47.3648 44.6299 45.8283Z" fill="#5DC0E8"/>
    <path d="M128 46.9248C128 38.9498 130.319 32.931 135.112 29.0188C139.75 24.9561 145.316 23 151.655 23C157.993 23 163.405 24.9561 168.043 29.0188C172.681 33.0815 175 38.9498 175 47.0752C175 55.0502 172.681 61.069 168.043 64.9812C163.405 69.0439 157.839 71 151.655 71C145.316 71 139.905 69.0439 135.112 64.9812C130.319 60.9185 128 54.8997 128 46.9248ZM138.204 46.9248C138.204 52.4922 139.286 56.4044 141.296 58.9624C143.461 61.5204 145.78 63.1755 148.253 63.7774C148.872 63.9279 149.336 64.0784 149.954 64.0784C150.418 64.0784 151.036 64.2288 151.5 64.2288C152.118 64.2288 152.582 64.2288 153.201 64.0784C153.819 64.0784 154.283 63.9279 154.901 63.7774C157.375 63.1755 159.694 61.5204 161.704 58.9624C163.714 56.4044 164.796 52.3417 164.796 47.0752C164.796 41.6583 163.714 37.7461 161.704 35.1881C159.694 32.6301 157.375 30.9749 154.901 30.373C154.283 30.2226 153.664 30.0721 153.201 30.0721C152.582 30.0721 152.118 29.9216 151.5 29.9216C150.882 29.9216 150.418 29.9216 149.954 30.0721C149.49 30.0721 148.872 30.2226 148.253 30.373C145.78 30.9749 143.461 32.6301 141.296 35.1881C139.286 37.4451 138.204 41.5078 138.204 46.9248Z" fill="#333333"/>
    <path d="M182 23H194.803L211.665 53.1538L214.164 59.7692H214.32L214.164 51.1538V23H224V71H211.197L194.335 39.6154L191.836 34.2308H191.68L191.836 42.6923V71H182V23Z" fill="#333333"/>
    <path d="M233 23H242.77V62.8462H262V71H233V23Z" fill="#333333"/>
    <path d="M258 23H269.289L279.186 39.7692L280.732 43.1538H281.041L282.588 39.7692L292.639 23H303L285.526 51.4615V71H275.784V51.3077L258 23Z" fill="#333333"/>
    <path d="M302 46.9248C302 38.9498 304.319 32.931 309.112 29.0188C313.75 24.9561 319.316 23 325.655 23C331.993 23 337.405 24.9561 342.043 29.0188C346.681 33.0815 349 38.9498 349 47.0752C349 55.0502 346.681 61.069 342.043 64.9812C337.405 69.0439 331.839 71 325.655 71C319.316 71 313.905 69.0439 309.112 64.9812C304.474 60.9185 302 54.8997 302 46.9248ZM312.204 46.9248C312.204 52.4922 313.286 56.4044 315.296 58.9624C317.461 61.5204 319.625 63.1755 322.253 63.7774C322.872 63.9279 323.336 64.0784 323.954 64.0784C324.418 64.0784 325.036 64.2288 325.5 64.2288C326.118 64.2288 326.582 64.2288 327.201 64.0784C327.819 64.0784 328.283 63.9279 328.901 63.7774C331.375 63.1755 333.694 61.5204 335.704 58.9624C337.714 56.4044 338.796 52.3417 338.796 47.0752C338.796 41.6583 337.714 37.7461 335.704 35.1881C333.694 32.6301 331.375 30.9749 328.901 30.373C328.283 30.2226 327.664 30.0721 327.201 30.0721C326.582 30.0721 326.118 29.9216 325.5 29.9216C324.882 29.9216 324.418 29.9216 323.954 30.0721C323.49 30.0721 322.872 30.2226 322.253 30.373C319.78 30.9749 317.461 32.6301 315.296 35.1881C313.286 37.4451 312.204 41.5078 312.204 46.9248Z" fill="#333333"/>
    <path d="M356 23H383V30.8333H365.776V42.2821H382.224V50.266H365.776V70H356V23Z" fill="#333333"/>
    <path d="M390 23H417V30.8333H399.776V42.2821H416.224V50.266H399.776V70H390V23Z" fill="#333333"/>
    <path d="M424 70V23H434V70H424Z" fill="#333333"/>
    <path d="M479 24.2114V32.388C477.28 31.7823 475.56 31.3281 473.683 31.0252C471.807 30.7224 469.617 30.571 467.428 30.571C462.267 30.571 458.358 32.0852 455.543 35.265C452.728 38.2934 451.321 42.2303 451.321 46.9243C451.321 51.4669 452.572 55.2524 455.23 58.2808C457.889 61.3091 461.642 62.9748 466.49 62.9748C468.21 62.9748 469.93 62.8233 471.963 62.6719C473.996 62.3691 476.029 61.9148 478.218 61.0063L478.844 69.0315C478.531 69.183 478.062 69.3344 477.593 69.4858C476.967 69.6372 476.342 69.7886 475.56 69.9401C474.309 70.2429 472.745 70.3943 470.868 70.6972C468.992 70.8486 467.115 71 465.082 71C464.77 71 464.457 71 464.3 71C463.988 71 463.675 71 463.519 71C457.889 70.6972 452.728 68.5773 448.037 64.9432C443.346 61.1577 441 55.2524 441 47.3785C441 39.6562 443.346 33.5994 447.881 29.3596C452.416 25.1199 458.671 23 466.333 23C468.366 23 470.243 23 471.807 23.1514C473.527 23.3028 475.091 23.6057 476.811 23.9085C477.123 24.0599 477.593 24.0599 477.905 24.2114C478.218 24.0599 478.531 24.2114 479 24.2114Z" fill="#333333"/>
    <path d="M486 23H514V30.3814H495.583V42.1314H512.203V49.3622H495.583V62.6186H514V70H486V23Z" fill="#333333"/>
</symbol>

<symbol id="onlyoffice-logo-small" viewBox="0 0 40 36">
    <path fill-rule="evenodd" clip-rule="evenodd" d="M17.5554 35.5589L1.05424 28.1473C-0.351413 27.5003 -0.351413 26.5003 1.05424 25.9121L6.79908 23.324L17.4943 28.1473C18.8999 28.7944 21.1612 28.7944 22.5057 28.1473L33.2009 23.324L38.9458 25.9121C40.3514 26.5592 40.3514 27.5591 38.9458 28.1473L22.4446 35.5589C21.1612 36.1471 18.8999 36.1471 17.5554 35.5589Z" fill="#FF6F3D"/>
    <path fill-rule="evenodd" clip-rule="evenodd" d="M17.5019 26.3875L1.05103 18.9673C-0.350343 18.3196 -0.350343 17.3184 1.05103 16.7295L6.65651 14.1973L17.5019 19.0851C18.9033 19.7329 21.1577 19.7329 22.4981 19.0851L33.3435 14.1973L38.949 16.7295C40.3503 17.3773 40.3503 18.3784 38.949 18.9673L22.4981 26.3875C21.0967 27.0353 18.8423 27.0353 17.5019 26.3875Z" fill="#95C038"/>
    <path fill-rule="evenodd" clip-rule="evenodd" d="M17.5019 17.3112L1.05103 9.99781C-0.350343 9.35935 -0.350343 8.37262 1.05103 7.7922L17.5019 0.47885C18.9033 -0.159617 21.1577 -0.159617 22.4981 0.47885L38.949 7.7922C40.3503 8.43067 40.3503 9.41739 38.949 9.99781L22.4981 17.3112C21.0967 17.8916 18.8423 17.8916 17.5019 17.3112Z" fill="#5DC0E8"/>
</symbol>


<symbol id="onlyoffice-pin-icon" viewBox="0 0 10 14">
    <path fill-rule="evenodd" clip-rule="evenodd" d="M10 0H0V2H2V7H0V9H4V13L5 14L6 13L6 9H10V7H8V2H10V0Z"/>
</symbol>

<symbol id="onlyoffice-lock-icon" viewBox="0 0 12 14">
    <path fill-rule="evenodd" clip-rule="evenodd" d="M3.96694 3.86207C3.96694 3.46903 4.16507 2.97241 4.55507 2.56623C4.93629 2.1692 5.4303 1.93103 5.95041 1.93103C6.47052 1.93103 6.96454 2.1692 7.34576 2.56623C7.73575 2.97241 7.93388 3.46903 7.93388 3.86207V5.31034H3.96694V3.86207ZM1.98347 5.31933V3.86207C1.98347 2.90338 2.42997 1.95173 3.10609 1.24756C3.79098 0.534253 4.78457 0 5.95041 0C7.11625 0 8.10984 0.534253 8.79474 1.24756C9.47086 1.95173 9.91736 2.90338 9.91736 3.86207V5.31258C11.0629 5.3644 12 6.3082 12 7.43448V11.9724C11.9008 13.0345 10.9091 14 9.71901 14H2.18182C0.991736 14 0 13.0345 0 11.8759V7.43448C0 6.34088 0.883547 5.41932 1.98347 5.31933Z"/>
</symbol>

<symbol id="onlyoffice-comment-icon" viewBox="0 0 14 13">
    <path fill-rule="evenodd" clip-rule="evenodd" d="M0 2C0 0.89543 0.895431 0 2 0H10C11.1046 0 12 0.895431 12 2V3H5C3.89543 3 3 3.89543 3 5V9L0 11V2ZM12.3333 4C13.2538 4 14 4.73263 14 5.63636V13L11.5 11.3636H5.66667C4.74619 11.3636 4 10.631 4 9.72727V5.63636C4 4.73263 4.74619 4 5.66667 4H12.3333Z"/>
</symbol>

<symbol id="onlyoffice-wheel-icon" viewBox="0 0 18 18">
    <path d="M18 10.2857V7.71429H15.3C15.1382 6.90984 14.8193 6.14523 14.3614 5.46429L16.2771 3.54857L14.4514 1.72286L12.5357 3.63857C11.8548 3.18072 11.0902 2.86177 10.2857 2.7V0H7.71429V2.7C6.90984 2.86177 6.14523 3.18072 5.46429 3.63857L3.54857 1.72286L1.72286 3.54857L3.63857 5.46429C3.18072 6.14523 2.86177 6.90984 2.7 7.71429H0V10.2857H2.7C2.86177 11.0902 3.18072 11.8548 3.63857 12.5357L1.72286 14.4514L3.54857 16.2771L5.46429 14.3614C6.14523 14.8193 6.90984 15.1382 7.71429 15.3V18H10.2857V15.3C11.0902 15.1382 11.8548 14.8193 12.5357 14.3614L14.4514 16.2771L16.2771 14.4514L14.3614 12.5357C14.8193 11.8548 15.1382 11.0902 15.3 10.2857H18ZM9 12.8571C8.23713 12.8571 7.49139 12.6309 6.85709 12.2071C6.22278 11.7833 5.7284 11.1809 5.43646 10.4761C5.14453 9.77126 5.06814 8.99572 5.21697 8.24751C5.3658 7.4993 5.73316 6.81202 6.27259 6.27259C6.81202 5.73316 7.4993 5.3658 8.24751 5.21697C8.99572 5.06814 9.77126 5.14453 10.4761 5.43646C11.1809 5.7284 11.7833 6.22278 12.2071 6.85709C12.6309 7.49139 12.8571 8.23713 12.8571 9C12.8571 10.023 12.4508 11.0041 11.7274 11.7274C11.0041 12.4508 10.023 12.8571 9 12.8571Z"/>
</symbol>

<symbol id="onlyoffice-arrow-right-icon" viewBox="0 0 7 10">
    <path d="M1 1L5 5L1 9" stroke="#444444" stroke-width="1.5" stroke-linecap="round"/>
</symbol>

<symbol id="onlyoffice-arrow-down-icon" viewBox="0 0 10 7">
    <path d="M9 1L5 5L1 1" stroke="#444444" stroke-width="1.5" stroke-linecap="round"/>
</symbol>

<symbol id="onlyoffice-add-icon" viewBox="0 0 12 12">
    <path d="M2 6H10" stroke="white" stroke-width="1.5" stroke-miterlimit="10" stroke-linecap="round" stroke-linejoin="round"/>
    <path d="M6 10V2" stroke="white" stroke-width="1.5" stroke-miterlimit="10" stroke-linecap="round" stroke-linejoin="round"/>
</symbol>

<symbol id="onlyoffice-close-tags-icon" viewBox="0 0 12 12">
    <path d="M3.17163 3.17157L8.82849 8.82842" stroke="#AAAAAA" stroke-width="1.5" stroke-miterlimit="10" stroke-linecap="round" stroke-linejoin="round"/>
    <path d="M3.17151 8.82842L8.82837 3.17157" stroke="#AAAAAA" stroke-width="1.5" stroke-miterlimit="10" stroke-linecap="round" stroke-linejoin="round"/>
</symbol>

<symbol id="onlyoffice-message-icon" viewBox="0 0 32 32">
    <path fill-rule="evenodd" clip-rule="evenodd" d="M25.9999 8H26V8.00008L25.9999 8ZM25.2958 8H5.704L15.1449 17.5225C15.3405 17.7198 15.6595 17.7198 15.8551 17.5225L25.2958 8ZM5 8.71026L5 22.2928L11.7621 15.5308L5 8.71026ZM25.293 23H5.70705L12.4661 16.2409L14.4348 18.2266C15.0216 18.8185 15.9784 18.8185 16.5652 18.2266L18.5339 16.2409L25.293 23ZM26 22.2928V8.71005L19.2379 15.5307L26 22.2928ZM4 8C4 7.44772 4.44772 7 5 7H26C26.5523 7 27 7.44772 27 8V23C27 23.5523 26.5523 24 26 24H5C4.44772 24 4 23.5523 4 23V8Z" fill="#444444"/>
</symbol>

<symbol id="onlyoffice-topic-icon" viewBox="0 0 32 32">
    <path d="M22 10H10V11H22V10Z" fill="#444444"/>
    <path d="M22 13H10V14H22V13Z" fill="#444444"/>
    <path d="M16 16H10V17H16V16Z" fill="#444444"/>
    <path fill-rule="evenodd" clip-rule="evenodd" d="M8.91421 21L11.5 23.5858L14.0858 21H25C25.5523 21 26 20.5523 26 20V8C26 7.44771 25.5523 7 25 7H7C6.44772 7 6 7.44772 6 8V20C6 20.5523 6.44772 21 7 21H8.91421ZM11.5 25L8.5 22H7C5.89543 22 5 21.1046 5 20V8C5 6.89543 5.89543 6 7 6H25C26.1046 6 27 6.89543 27 8V20C27 21.1046 26.1046 22 25 22H14.5L11.5 25Z" fill="#444444"/>
</symbol>

<symbol id="onlyoffice-comment-topic-icon" viewBox="0 0 512 512">
    <path fill-rule="evenodd" clip-rule="evenodd" d="M242.745 349H434V98H78V349H138.005L190.375 401.37L242.745 349ZM256 381L204.517 432.483C196.707 440.293 184.043 440.293 176.233 432.483L124.75 381H72.25C57.7525 381 46 369.247 46 354.75V92.25C46 77.7525 57.7525 66 72.25 66H439.75C454.247 66 466 77.7525 466 92.25V354.75C466 369.247 454.247 381 439.75 381H256Z"/>
</symbol>

<symbol id="onlyoffice-bold-topic-icon" viewBox="0 0 512 512">
    <path d="M132 76H235.886C283.225 76 317.549 83.3051 338.859 97.9152C360.321 112.361 371.052 135.425 371.052 167.108C371.052 188.613 366.333 206.26 356.896 220.049C347.611 233.839 335.206 242.129 319.68 244.919V247.382C340.838 252.471 356.059 261.992 365.344 275.945C374.781 289.899 379.5 308.449 379.5 331.595C379.5 364.427 368.464 390.036 346.393 408.421C324.475 426.807 294.641 436 256.892 436H132V76ZM202.78 218.572H243.877C263.056 218.572 276.908 215.371 285.432 208.969C294.108 202.566 298.446 191.978 298.446 177.204C298.446 163.414 293.727 153.565 284.29 147.655C275.005 141.581 260.24 138.544 239.996 138.544H202.78V218.572ZM202.78 279.146V372.963H248.9C268.384 372.963 282.768 368.941 292.053 360.897C301.338 352.854 305.981 340.542 305.981 323.962C305.981 294.085 286.193 279.146 246.617 279.146H202.78Z"/>
</symbol>

<symbol id="onlyoffice-italic-topic-icon" viewBox="0 0 512 512">
    <path fill-rule="evenodd" clip-rule="evenodd" d="M228.118 96H378.706V114.824H322.235L228.118 397.176H284.588V416H134V397.176H190.471L284.588 114.824H228.118V96Z"/>
</symbol>

<symbol id="onlyoffice-link-topic-icon" viewBox="0 0 512 512">
    <g clip-path="url(#clip0)">
    <path fill-rule="evenodd" clip-rule="evenodd" d="M121.945 320.063L156.187 285.821C165.653 276.355 178.09 271.669 190.497 271.764L217.639 244.621C189.307 234.269 156.294 240.46 133.56 263.194L99.3181 297.435C68.0761 328.677 68.0761 379.331 99.3181 410.572L100.809 412.063C132.051 443.305 182.704 443.305 213.946 412.063L248.187 377.822C270.92 355.089 277.112 322.08 266.763 293.75L239.618 320.895C239.71 333.299 235.024 345.731 225.56 355.194L191.319 389.436C172.573 408.181 142.181 408.181 123.436 389.436L121.945 387.945C103.2 369.2 103.2 338.808 121.945 320.063Z"/>
    <path fill-rule="evenodd" clip-rule="evenodd" d="M285.706 156.324L319.946 122.084C338.691 103.339 369.083 103.339 387.828 122.084L389.32 123.575C408.065 142.32 408.065 172.712 389.32 191.457L355.079 225.697C345.612 235.165 333.175 239.85 320.767 239.755L293.625 266.897C321.958 277.25 354.972 271.06 377.707 248.325L411.947 214.085C443.189 182.843 443.189 132.189 411.947 100.948L410.456 99.4563C379.214 68.2144 328.561 68.2144 297.319 99.4563L263.078 133.697C240.347 156.428 234.154 189.437 244.502 217.767L271.648 190.621C271.557 178.218 276.243 165.787 285.706 156.324Z"/>
    <path fill-rule="evenodd" clip-rule="evenodd" d="M356.869 154.261C363.117 160.509 363.117 170.64 356.869 176.888L176.741 357.015C170.493 363.264 160.362 363.264 154.114 357.015C147.865 350.767 147.865 340.636 154.114 334.388L334.241 154.261C340.49 148.012 350.62 148.012 356.869 154.261Z"/>
    </g>
    <defs>
    <clipPath id="clip0">
    <rect width="512" height="512" fill="white"/>
    </clipPath>
    </defs>
</symbol>

<symbol id="oo-blockquote-topic-icon" viewBox="0 0 512 512">
    <path fill-rule="evenodd" clip-rule="evenodd" d="M160 232V323.267L129.282 369.344L151.005 383.825L212 307.581V120H100V232H160ZM76 96H236V316L156 416L96 376L136 316V256H76V96Z"/>
    <path fill-rule="evenodd" clip-rule="evenodd" d="M360 232V323.267L329.282 369.344L351.005 383.825L412 307.581V120H300V232H360ZM276 96H436V316L356 416L296 376L336 316V256H276V96Z"/>
</symbol>

<symbol id="oo-code-topic-icon" viewBox="0 0 512 512">
    <path fill-rule="evenodd" clip-rule="evenodd" d="M192.08 424.173C183.645 421.537 178.945 412.563 181.581 404.129L280.144 88.7261C282.78 80.2918 291.754 75.5911 300.188 78.2269C308.622 80.8626 313.323 89.8366 310.687 98.2709L212.124 413.674C209.488 422.108 200.514 426.809 192.08 424.173Z"/>
    <path fill-rule="evenodd" clip-rule="evenodd" d="M164.611 147.362C170.859 153.61 170.859 163.741 164.611 169.989L78.6274 255.973L164.611 341.957C170.859 348.205 170.859 358.336 164.611 364.584C158.363 370.832 148.232 370.832 141.984 364.584L44.6863 267.287C38.4379 261.038 38.4379 250.908 44.6863 244.659L141.984 147.362C148.232 141.114 158.363 141.114 164.611 147.362Z"/>
    <path fill-rule="evenodd" clip-rule="evenodd" d="M347.389 364.583C341.141 358.335 341.141 348.204 347.389 341.956L433.373 255.972L347.389 169.989C341.141 163.74 341.141 153.61 347.389 147.361C353.637 141.113 363.768 141.113 370.016 147.361L467.314 244.659C473.562 250.907 473.562 261.038 467.314 267.286L370.016 364.583C363.768 370.832 353.637 370.832 347.389 364.583Z"/>
</symbol>

<symbol id="oo-img-topic-icon" viewBox="0 0 512 512">
    <path fill-rule="evenodd" clip-rule="evenodd" d="M426 78H86C81.5817 78 78 81.5817 78 86V426C78 430.418 81.5817 434 86 434H426C430.418 434 434 430.418 434 426V86C434 81.5817 430.418 78 426 78ZM86 46C63.9086 46 46 63.9086 46 86V426C46 448.091 63.9086 466 86 466H426C448.091 466 466 448.091 466 426V86C466 63.9086 448.091 46 426 46H86Z"/>
    <path fill-rule="evenodd" clip-rule="evenodd" d="M197.667 200.667C212.21 200.667 224 188.877 224 174.333C224 159.79 212.21 148 197.667 148C183.123 148 171.333 159.79 171.333 174.333C171.333 188.877 183.123 200.667 197.667 200.667ZM197.667 232.667C229.883 232.667 256 206.55 256 174.333C256 142.117 229.883 116 197.667 116C165.45 116 139.333 142.117 139.333 174.333C139.333 206.55 165.45 232.667 197.667 232.667Z"/>
    <path fill-rule="evenodd" clip-rule="evenodd" d="M455.084 199.244C460.657 206.102 459.614 216.179 452.756 221.751L266.089 373.418C260.088 378.294 251.458 378.181 245.587 373.148L173.842 311.652L79.1563 385.296C72.1811 390.722 62.1287 389.465 56.7036 382.49C51.2785 375.515 52.5351 365.462 59.5102 360.037L164.51 278.371C170.513 273.702 178.972 273.903 184.746 278.852L256.274 340.162L432.577 196.916C439.435 191.343 449.512 192.386 455.084 199.244Z"/>
</symbol>

<symbol id="oo-list-bullets-topic-icon" viewBox="0 0 512 512">
    <path fill-rule="evenodd" clip-rule="evenodd" d="M136.907 162.813C153.976 162.813 167.813 148.976 167.813 131.907C167.813 114.837 153.976 101 136.907 101C119.837 101 106 114.837 106 131.907C106 148.976 119.837 162.813 136.907 162.813ZM136.907 286.439C153.976 286.439 167.813 272.602 167.813 255.533C167.813 238.464 153.976 224.626 136.907 224.626C119.837 224.626 106 238.464 106 255.533C106 272.602 119.837 286.439 136.907 286.439ZM167.813 379.159C167.813 396.228 153.976 410.066 136.907 410.066C119.837 410.066 106 396.228 106 379.159C106 362.09 119.837 348.253 136.907 348.253C153.976 348.253 167.813 362.09 167.813 379.159ZM188.418 121.604H406V141.384H188.418V121.604ZM406 245.231H188.418V265.011H406V245.231ZM188.418 368.857H406V388.637H188.418V368.857Z"/>
</symbol>

<symbol id="oo-list-numbering-topic-icon" viewBox="0 0 512 512">
    <path fill-rule="evenodd" clip-rule="evenodd" d="M146 186H126V106H106V86H126H146V186ZM186 126H406V146H186V126ZM186 246H406V266H186V246ZM166 306V286H126L166 246V226L146 206H126H106V226H146V246L106 286V306H166ZM186 366H406V386H186V366ZM126 386H146V406H106V426H146L166 406V366V346L146 326H106V346H126H146V366H126V386Z"/>
</symbol>

<symbol id="oo-smile-topic-icon" viewBox="0 0 512 512">
    <path fill-rule="evenodd" clip-rule="evenodd" d="M256 402C336.634 402 402 336.634 402 256C402 175.366 336.634 110 256 110C175.366 110 110 175.366 110 256C110 336.634 175.366 402 256 402ZM256 426C349.888 426 426 349.888 426 256C426 162.112 349.888 86 256 86C162.112 86 86 162.112 86 256C86 349.888 162.112 426 256 426Z"/>
    <path d="M218.222 218.223C218.222 228.655 209.765 237.112 199.333 237.112C188.901 237.112 180.444 228.655 180.444 218.223C180.444 207.791 188.901 199.334 199.333 199.334C209.765 199.334 218.222 207.791 218.222 218.223Z"/>
    <path d="M331.556 218.223C331.556 228.655 323.099 237.112 312.667 237.112C302.235 237.112 293.778 228.655 293.778 218.223C293.778 207.791 302.235 199.334 312.667 199.334C323.099 199.334 331.556 207.791 331.556 218.223Z"/>
    <path fill-rule="evenodd" clip-rule="evenodd" d="M171.938 287.759C189.787 318.545 220.984 338.444 256.001 338.444C291.018 338.444 322.214 318.545 340.064 287.759L360.826 299.797C339.199 337.099 300.556 362.444 256.001 362.444C211.445 362.444 172.802 337.099 151.175 299.797L171.938 287.759Z"/>
</symbol>

<symbol id="oo-date-topic-icon" viewBox="0 0 512 512">
    <path fill-rule="evenodd" clip-rule="evenodd" d="M416 128H96C91.5817 128 88 131.582 88 136V396C88 400.418 91.5817 404 96 404H416C420.418 404 424 400.418 424 396V136C424 131.582 420.418 128 416 128ZM96 96C73.9086 96 56 113.909 56 136V396C56 418.091 73.9086 436 96 436H416C438.091 436 456 418.091 456 396V136C456 113.909 438.091 96 416 96H96Z"/>
    <path d="M116 68H156V128H116V68Z"/>
    <path d="M276 68H316V128H276V68Z"/>
    <path d="M196 68H236V128H196V68Z"/>
    <path d="M356 68H396V128H356V68Z"/>
    <path d="M116 176H156V216H116V176Z"/>
    <path d="M196 176H236V216H196V176Z"/>
    <path d="M116 256H156V296H116V256Z"/>
    <path d="M116 336H156V376H116V336Z"/>
    <path d="M196 256H236V296H196V256Z"/>
    <path d="M196 336H236V376H196V336Z"/>
    <path d="M276 176H316V216H276V176Z"/>
    <path d="M356 176H396V216H356V176Z"/>
    <path d="M276 256H316V296H276V256Z"/>
    <path d="M276 336H316V376H276V336Z"/>
    <path d="M356 256H396V296H356V256Z"/>
    <path d="M356 336H396V376H356V336Z"/>
</symbol>

<symbol id="oo-settings-topic-icon" viewBox="0 0 512 512">
    <path fill-rule="evenodd" clip-rule="evenodd" d="M219.138 32.8629C230.837 30.9126 243.985 30 256 30C268.196 30 280.374 30.9389 292.521 32.8081L310.989 35.6502L326.939 103.897C335.663 107.965 344.159 112.781 352.176 118.387L420.217 98.9419L431.713 113.316C446.446 131.737 459.758 153.426 468.451 177.582L474.63 194.748L423.821 242.065C424.281 246.889 424.513 251.723 424.513 256.566C424.513 261.05 424.321 266.152 423.585 271.561L472.973 317.555L466.794 334.721C458.29 358.351 445.907 380.353 429.532 399.622L417.796 413.433L351.116 393.248C343.167 398.785 334.751 403.549 326.11 407.577L310.218 475.58L292.034 478.611C280.335 480.562 267.187 481.474 255.172 481.474C242.975 481.474 230.798 480.535 218.651 478.666L200.182 475.824L184.233 407.577C175.592 403.549 167.176 398.785 159.227 393.248L91.9785 413.605L80.2873 398.987C65.5539 380.566 52.2427 358.877 43.5489 334.721L37.3706 317.555L88.1795 270.238C87.719 265.414 87.4876 260.58 87.4876 255.737C87.4876 250.895 87.719 246.06 88.1795 241.237L37.3706 193.919L43.5489 176.753C52.0535 153.123 64.4362 131.121 80.8107 111.852L92.5009 98.0955L160.002 118.263C167.966 112.71 176.401 107.935 185.061 103.897L200.954 35.8943L219.138 32.8629ZM227.252 63.9817L212.526 126.994L204.907 130.128C193.388 134.866 182.499 140.992 172.937 148.478L166.421 153.579L103.382 134.744C91.1351 149.66 81.552 166.578 74.6465 184.906L122.144 229.139L120.874 237.493C119.95 243.577 119.488 249.657 119.488 255.737C119.488 261.817 119.95 267.898 120.874 273.981L122.144 282.335L74.65 326.565C81.5742 344.778 91.7709 361.697 103.459 376.696L165.583 357.89L172.127 363.011C181.684 370.491 192.567 376.611 204.079 381.346L211.697 384.48L226.417 447.464C236.005 448.805 245.589 449.474 255.172 449.474C264.724 449.474 274.914 448.809 283.92 447.493L298.646 384.48L306.264 381.346C317.776 376.611 328.659 370.491 338.216 363.011L344.76 357.89L406.968 376.721C419.212 361.808 428.792 344.892 435.697 326.568L388.282 282.412L390.722 273.152C392.099 267.925 392.513 262.338 392.513 256.566C392.513 250.486 392.051 244.405 391.126 238.322L389.857 229.968L437.35 185.738C430.42 167.509 420.212 150.577 408.511 135.568L345.549 153.562L339.127 148.527C329.549 141.018 318.638 134.877 307.093 130.128L299.474 126.994L284.755 64.0101C275.167 62.6697 265.582 62 256 62C246.448 62 236.258 62.6654 227.252 63.9817Z"/>
    <path fill-rule="evenodd" clip-rule="evenodd" d="M255.997 305.302C283.371 305.302 305.561 283.111 305.561 255.737C305.561 228.363 283.371 206.173 255.997 206.173C228.623 206.173 206.433 228.363 206.433 255.737C206.433 283.111 228.623 305.302 255.997 305.302ZM255.997 337.302C301.044 337.302 337.561 300.784 337.561 255.737C337.561 210.69 301.044 174.173 255.997 174.173C210.95 174.173 174.433 210.69 174.433 255.737C174.433 300.784 210.95 337.302 255.997 337.302Z"/>
</symbol>

<symbol id="oo-unlisted-topic-icon">
    <path fill-rule="evenodd" clip-rule="evenodd" d="M5.44983 11.9999C6.92889 14.0148 9.31238 15.3199 12 15.3199C14.6876 15.3199 17.0711 14.0148 18.5502 11.9999C17.0711 9.9851 14.6876 8.67993 12 8.67993C9.31238 8.67993 6.92889 9.9851 5.44983 11.9999ZM19.7561 11.9999C18.1479 9.40686 15.2756 7.67993 12 7.67993C8.72437 7.67993 5.85207 9.40686 4.2439 11.9999C5.85208 14.593 8.72437 16.3199 12 16.3199C15.2756 16.3199 18.1479 14.593 19.7561 11.9999Z"/>
    <path d="M14.4 12.0001C14.4 13.3256 13.3255 14.4001 12 14.4001C10.6745 14.4001 9.59998 13.3256 9.59998 12.0001C9.59998 10.6746 10.6745 9.6001 12 9.6001C13.3255 9.6001 14.4 10.6746 14.4 12.0001Z"/>
    <path fill-rule="evenodd" clip-rule="evenodd" d="M5.14024 5.3935C5.32814 5.19114 5.64451 5.17942 5.84687 5.36733L18.5541 17.1669C18.7564 17.3548 18.7681 17.6711 18.5802 17.8735C18.3923 18.0759 18.076 18.0876 17.8736 17.8997L5.16641 6.10012C4.96406 5.91222 4.95234 5.59585 5.14024 5.3935Z"/>
</symbol>

<symbol id="oo-details-topic-icon">
    <path fill-rule="evenodd" clip-rule="evenodd" d="M15 5H12V18H15V5ZM12 4C11.4477 4 11 4.44772 11 5L11 18C11 18.5523 11.4477 19 12 19H15C15.5523 19 16 18.5523 16 18V5C16 4.44772 15.5523 4 15 4H12Z"/>
    <path fill-rule="evenodd" clip-rule="evenodd" d="M2.5 4C2.77614 4 3 4.22386 3 4.5V21H22C22.2761 21 22.5 21.2239 22.5 21.5C22.5 21.7761 22.2761 22 22 22H2.5C2.22386 22 2 21.7761 2 21.5V4.5C2 4.22386 2.22386 4 2.5 4Z"/>
    <path fill-rule="evenodd" clip-rule="evenodd" d="M21 11H18V18H21V11ZM18 10C17.4477 10 17 10.4477 17 11L17 18C17 18.5523 17.4477 19 18 19H21C21.5523 19 22 18.5523 22 18V11C22 10.4477 21.5523 10 21 10H18Z"/>
    <path fill-rule="evenodd" clip-rule="evenodd" d="M9 14H6L6 18H9V14ZM6 13C5.44772 13 5 13.4477 5 14V18C5 18.5523 5.44772 19 6 19H9C9.55228 19 10 18.5523 10 18V14C10 13.4477 9.55228 13 9 13H6Z"/>
</symbol>

<symbol id="oo-build-topic-icon">
    <path fill-rule="evenodd" clip-rule="evenodd" d="M3.5 4.5C3.5 4.22386 3.72386 4 4 4H20C20.2761 4 20.5 4.22386 20.5 4.5C20.5 4.77614 20.2761 5 20 5H4C3.72386 5 3.5 4.77614 3.5 4.5Z"/>
    <path fill-rule="evenodd" clip-rule="evenodd" d="M3.5 8.5C3.5 8.22386 3.72386 8 4 8H20C20.2761 8 20.5 8.22386 20.5 8.5C20.5 8.77614 20.2761 9 20 9H4C3.72386 9 3.5 8.77614 3.5 8.5Z"/>
    <path fill-rule="evenodd" clip-rule="evenodd" d="M3.5 12.5C3.5 12.2239 3.72386 12 4 12H9C9.27614 12 9.5 12.2239 9.5 12.5C9.5 12.7761 9.27614 13 9 13H4C3.72386 13 3.5 12.7761 3.5 12.5Z"/>
    <path fill-rule="evenodd" clip-rule="evenodd" d="M3.5 16.5C3.5 16.2239 3.72386 16 4 16H9C9.27614 16 9.5 16.2239 9.5 16.5C9.5 16.7761 9.27614 17 9 17H4C3.72386 17 3.5 16.7761 3.5 16.5Z"/>
    <path fill-rule="evenodd" clip-rule="evenodd" d="M16.5 20C18.433 20 20 18.433 20 16.5C20 14.567 18.433 13 16.5 13C14.567 13 13 14.567 13 16.5C13 18.433 14.567 20 16.5 20ZM16.5 21C18.9853 21 21 18.9853 21 16.5C21 14.0147 18.9853 12 16.5 12C14.0147 12 12 14.0147 12 16.5C12 18.9853 14.0147 21 16.5 21Z"/>
    <path fill-rule="evenodd" clip-rule="evenodd" d="M19 20.0001L13 14.0001L13.7072 13.293L19.7072 19.293L19 20.0001Z"/>
</symbol>

<symbol id="oo-edit-topic-icon" viewBox="0 0 25 25">
    <path d="M4 21V17L13 8L17 12L8 21H4Z"/>
    <path d="M18 11L14 7L17 4H18L21 7V8L18 11Z"/>
</symbol>

<symbol id="oo-ring-topic-icon" viewBox="0 0 512 512">
    <path fill-rule="evenodd" clip-rule="evenodd" d="M203.75 413.5L203.75 387.25L308.75 387.25L308.75 413.5C308.75 442.495 285.245 466 256.25 466C227.255 466 203.75 442.495 203.75 413.5ZM418.667 329L387.5 282.25L387.5 177.25C387.5 104.763 328.737 46 256.25 46C183.763 46 125 104.763 125 177.25L125 282.25L93.8334 329L72.5 361L110.959 361L401.541 361L440 361L418.667 329ZM151.626 300L132.293 329L380.207 329L360.874 300L355.5 291.939L355.5 282.25L355.5 177.25C355.5 122.436 311.064 78 256.25 78C201.436 78 157 122.436 157 177.25L157 282.25L157 291.939L151.626 300Z"/>
</symbol>

<symbol id="oo-tracking-topic-icon" viewBox="0 0 24 24">
    <path fill-rule="evenodd" clip-rule="evenodd" d="M10 19C10 19.1727 10.0219 19.3402 10.063 19.5C10.285 20.3626 11.0681 21 12 21C12.9319 21 13.715 20.3626 13.937 19.5C13.9781 19.3402 14 19.1727 14 19L14 18L12.5 18L11.5 18L10 18L10 19ZM5.8 15.8L7 14L7 10C7 7.52991 8.79115 5.47816 11.1455 5.07273C11.2596 5.48366 11.4377 5.86797 11.6683 6.21428C9.72493 6.38234 8.2 8.01309 8.2 10L8.2 14L8.2 14.3633L7.99846 14.6656L7.24222 15.8L16.7578 15.8L16.0015 14.6656L15.8 14.3633L15.8 14L15.8 13L17 13L17 14L18.2 15.8L19 17L17.5578 17L6.44222 17L5 17L5.8 15.8Z"/>
    <path d="M17 4C17 5.10457 16.1046 6 15 6C13.8954 6 13 5.10457 13 4C13 2.89543 13.8954 2 15 2C16.1046 2 17 2.89543 17 4Z"/>
    <path d="M19 9.77778L19 11.8611H18.9982V12L11.0001 12L11.0001 11.8611L11 9.77778C11 8.24365 12.4323 7 14.1992 7L15.8008 7C17.5677 7 19 8.24365 19 9.77778Z"/>
</symbol>

<symbol id="oo-watching-topic-icon" viewBox="0 0 24 24">
    <path fill-rule="evenodd" clip-rule="evenodd" d="M10 20C10 20.1726 10.0219 20.3402 10.063 20.5C10.285 21.3626 11.0681 22 12 22C12.9319 22 13.715 21.3626 13.937 20.5C13.9781 20.3402 14 20.1726 14 20L14 19L12.5 19L11.5 19L10 19L10 20ZM5.8 16.8L7 15L7 11C7 8.23857 9.23858 6 12 6L12 7.2C9.90132 7.2 8.2 8.90131 8.2 11L8.2 15L8.2 15.3633L7.99846 15.6656L7.24222 16.8L16.7578 16.8L16.0015 15.6656L15.8 15.3633L15.8 15L15.8 14.8922C16.2517 14.7675 16.6606 14.5399 17 14.2361L17 15L18.2 16.8L19 18L17.5578 18L6.44222 18L5 18L5.8 16.8Z"/>
    <path d="M17 12C17 13.1046 16.1046 14 15 14C13.8954 14 13 13.1046 13 12C13 10.8954 13.8954 10 15 10C16.1046 10 17 10.8954 17 12Z"/>
    <path d="M13 2L17 2L16 9L14 9L13 2Z"/>
</symbol>

<symbol id="oo-muted-topic-icon" viewBox="0 0 24 24">
    <path fill-rule="evenodd" clip-rule="evenodd" d="M10 18C10 18.1726 10.0219 18.3402 10.063 18.5C10.285 19.3626 11.0681 20 12 20C12.9319 20 13.715 19.3626 13.937 18.5C13.9781 18.3402 14 18.1726 14 18L14 17L12.5 17L11.5 17L10 17L10 18ZM7 13L7 9.77851L8.2 10.9785L8.2 13L8.2 13.3633L7.99846 13.6656L7.24222 14.8L12.0215 14.8L13.2215 16L6.44222 16L5 16L5.8 14.8L7 13ZM8.93057 6.75933L8.0743 5.90307C8.99 4.74392 10.4081 4 12 4C14.7614 4 17 6.23857 17 9L17 13L18.2 14.8L19 16L18.1712 16L16.3309 14.1596L16.0015 13.6656L15.8 13.3633L15.8 13L15.8 9C15.8 6.90132 14.0987 5.2 12 5.2C10.7392 5.2 9.62182 5.81402 8.93057 6.75933Z"/>
    <path fill-rule="evenodd" clip-rule="evenodd" d="M17.5757 18.5756L4.42428 5.42416C4.18996 5.18985 4.18996 4.80995 4.42428 4.57563C4.65859 4.34132 5.03849 4.34132 5.2728 4.57563L18.4243 17.7271C18.6586 17.9614 18.6586 18.3413 18.4243 18.5756C18.19 18.8099 17.8101 18.8099 17.5757 18.5756Z"/>
</symbol>

<symbol id="oo-dots-topic-icon" viewBox="0 0 512 512">
    <path fill-rule="evenodd" clip-rule="evenodd" d="M87.25 280.5C100.643 280.5 111.5 269.643 111.5 256.25C111.5 242.857 100.643 232 87.25 232C73.8571 232 63 242.857 63 256.25C63 269.643 73.8571 280.5 87.25 280.5ZM87.25 312.5C118.316 312.5 143.5 287.316 143.5 256.25C143.5 225.184 118.316 200 87.25 200C56.184 200 31 225.184 31 256.25C31 287.316 56.184 312.5 87.25 312.5Z"/>
    <path fill-rule="evenodd" clip-rule="evenodd" d="M256 280.5C269.393 280.5 280.25 269.643 280.25 256.25C280.25 242.857 269.393 232 256 232C242.607 232 231.75 242.857 231.75 256.25C231.75 269.643 242.607 280.5 256 280.5ZM256 312.5C287.066 312.5 312.25 287.316 312.25 256.25C312.25 225.184 287.066 200 256 200C224.934 200 199.75 225.184 199.75 256.25C199.75 287.316 224.934 312.5 256 312.5Z"/>
    <path fill-rule="evenodd" clip-rule="evenodd" d="M424.75 280.5C438.143 280.5 449 269.643 449 256.25C449 242.857 438.143 232 424.75 232C411.357 232 400.5 242.857 400.5 256.25C400.5 269.643 411.357 280.5 424.75 280.5ZM424.75 312.5C455.816 312.5 481 287.316 481 256.25C481 225.184 455.816 200 424.75 200C393.684 200 368.5 225.184 368.5 256.25C368.5 287.316 393.684 312.5 424.75 312.5Z"/>
</symbol>

<symbol id="oo-reply-grey-icon" viewBox="0 0 16 16">
    <path d="M12.5 13V7.5H4.5" stroke="#808080" stroke-width="1.5" stroke-linecap="round" stroke-linejoin="round"/>
    <path d="M6.5 10L4 7.5L6.5 5" stroke="#808080" stroke-width="1.5" stroke-linecap="round" stroke-linejoin="round"/>
</symbol>

<symbol id="oo-reply-white-icon" viewBox="0 0 16 16">
    <path d="M12.5 13V7.5H4.5" stroke="white" stroke-width="1.5" stroke-linecap="round" stroke-linejoin="round"/>
    <path d="M6.5 10L4 7.5L6.5 5" stroke="white" stroke-width="1.5" stroke-linecap="round" stroke-linejoin="round"/>
</symbol>

<symbol id="oo-like-icon" viewBox="0 0 512 512">
    <path fill-rule="evenodd" clip-rule="evenodd" d="M256 157.445L232.808 133.05C214.431 113.72 191.384 100 169.529 100C118.615 100 78 140.615 78 191.529C78 216.197 85.9758 235.722 101.657 251.518L256.123 399.163L405.492 258.839C423.063 241.088 434 215.406 434 191.529C434 140.615 393.384 100 342.471 100C320.616 100 297.569 113.72 279.192 133.05L256 157.445ZM427.794 281.794L276.651 423.783C265.033 434.698 246.906 434.62 235.382 423.605L79.2652 274.382C57.0324 252.149 46 224.232 46 191.529C46 122.942 100.942 68 169.529 68C197.6 68 223.302 81.7851 243.301 98.9285C247.841 102.82 252.087 106.885 256 111.001C259.913 106.885 264.159 102.82 268.699 98.9285C288.698 81.785 314.4 68 342.471 68C411.058 68 466 122.942 466 191.529C466 224.54 451.193 258.394 427.794 281.794ZM254.741 400.46C254.743 400.459 254.744 400.457 254.746 400.456L254.741 400.46Z"/>
</symbol>

<symbol id="oo-flag-icon" viewBox="0 0 512 512">
    <path fill-rule="evenodd" clip-rule="evenodd" d="M104.667 30C113.504 30 120.667 37.1634 120.667 46L120.667 466C120.667 474.837 113.504 482 104.667 482C95.8304 482 88.667 474.837 88.667 466L88.667 46C88.667 37.1634 95.8304 30 104.667 30Z"/>
    <path fill-rule="evenodd" clip-rule="evenodd" d="M387.667 148.001H328.314C324.889 148.001 321.473 147.663 318.116 146.991L206.498 124.668H125V294.001H207.686C211.111 294.001 214.527 294.34 217.884 295.011L329.502 317.335H387.667V148.001ZM113 92.668C101.954 92.668 93 101.622 93 112.668V306.001C93 317.047 101.954 326.001 113 326.001H207.686C209.003 326.001 210.317 326.131 211.609 326.39L324.391 348.946C325.683 349.205 326.997 349.335 328.314 349.335H399.667C410.712 349.335 419.667 340.38 419.667 329.335V136.001C419.667 124.956 410.712 116.001 399.667 116.001H328.314C326.997 116.001 325.683 115.871 324.391 115.613L211.609 93.0564C210.317 92.7981 209.003 92.668 207.686 92.668H113Z"/>
</symbol>

<symbol id="oo-edit-tr-topic-icon" viewBox="0 0 512 512">
    <path d="M398.854 176.23L335.767 113.143L376.91 72H392.227L439.997 119.77V135.087L398.854 176.23ZM347.658 227.435L135.087 440.006H72V376.919L284.571 164.348L347.658 227.435Z" stroke="#444444" stroke-width="32"/>
</symbol>

<symbol id="oo-note-topic-icon" viewBox="0 0 512 512">
    <path fill-rule="evenodd" clip-rule="evenodd" d="M374 404.223V88H138V404.223L232.745 356.85C247.384 349.531 264.616 349.531 279.255 356.85L374 404.223ZM264.944 385.472C259.314 382.657 252.686 382.657 247.056 385.472L134.944 441.528C121.646 448.177 106 438.507 106 423.639V76C106 64.9543 114.954 56 126 56H386C397.046 56 406 64.9543 406 76V423.639C406 438.507 390.354 448.177 377.056 441.528L264.944 385.472Z"/>
</symbol>

<symbol id="oo-remove-topic-icon" viewBox="0 0 512 512">
    <path fill-rule="evenodd" clip-rule="evenodd" d="M141.49 427.903C145.437 431.243 151.816 434 159.818 434H352.848C360.851 434 367.229 431.243 371.176 427.903C375.055 424.621 376 421.474 376 419.333V148H136.667V419.333C136.667 421.474 137.611 424.621 141.49 427.903ZM104.667 116H408V419.333C408 445.107 383.308 466 352.848 466H159.818C129.359 466 104.667 445.107 104.667 419.333V116Z"/>
    <path fill-rule="evenodd" clip-rule="evenodd" d="M198 78C189.9 78 183.333 84.5665 183.333 92.6667V107.333H329.333V92.6667C329.333 84.5665 322.767 78 314.667 78H198ZM151.333 92.6667C151.333 66.8934 172.227 46 198 46H314.667C340.44 46 361.333 66.8934 361.333 92.6667V139.333H151.333V92.6667Z"/>
    <path d="M174.667 200C174.667 192.268 180.935 186 188.667 186C196.398 186 202.667 192.268 202.667 200V382C202.667 389.732 196.398 396 188.667 396C180.935 396 174.667 389.732 174.667 382V200Z"/>
    <path d="M314.667 200C314.667 192.268 320.935 186 328.667 186C336.398 186 342.667 192.268 342.667 200V382C342.667 389.732 336.398 396 328.667 396C320.935 396 314.667 389.732 314.667 382V200Z"/>
    <path d="M244.667 200C244.667 192.268 250.935 186 258.667 186C266.398 186 272.667 192.268 272.667 200V382C272.667 389.732 266.398 396 258.667 396C250.935 396 244.667 389.732 244.667 382V200Z"/>
    <path d="M58 130C58 122.268 64.268 116 72 116H440C447.732 116 454 122.268 454 130C454 137.732 447.732 144 440 144H72C64.268 144 58 137.732 58 130Z"/>
</symbol>

<symbol id="oo-key-tr-icon" viewBox="0 0 512 512">
    <path fill-rule="evenodd" clip-rule="evenodd" d="M292.299 210.774L261.281 218.64L256.852 201.171C252.441 183.777 257.31 165.338 269.734 152.389L329.724 89.8642C323.412 88.6622 316.768 88 309.782 88C245.381 88 195.563 137.547 195.563 200.325C195.563 214.233 197.658 226.678 201.599 237.83C207.894 255.644 205.552 278.478 189.205 294.595L88 394.375V420.43L119.262 423.232L221.565 320.177C236.398 305.234 257.503 301.682 275.259 307.187C286.422 310.648 297.63 312.65 309.782 312.65C374.182 312.65 424 263.103 424 200.325C424 196.897 423.897 193.686 423.688 190.673L366.22 247.331C353.35 260.019 334.815 265.116 317.268 260.79L299.241 256.347C280.596 251.752 266.001 237.254 261.281 218.64L292.299 210.774ZM425.219 144.225C430.623 138.897 439.584 140.004 443.529 146.487C453.205 162.386 456 180.792 456 200.325C456 281.213 391.415 344.65 309.782 344.65C293.94 344.65 279.523 342.011 265.783 337.752C258.21 335.404 249.86 337.095 244.275 342.722L138 449.778C133.806 454.002 127.949 456.139 122.02 455.608L74.2146 451.323C63.9021 450.399 56 441.757 56 431.403V389.354C56 384.001 58.1463 378.871 61.9585 375.112L166.739 271.808C172.848 265.784 174.286 256.581 171.427 248.492C166.156 233.577 163.563 217.488 163.563 200.325C163.563 119.437 228.148 56 309.782 56C333.296 56 353.889 61.8099 371.454 70.4685C378.59 73.9862 380.249 83.425 374.741 89.1658L292.825 174.544C288.046 179.524 286.173 186.616 287.87 193.306L292.299 210.774C294.115 217.934 299.728 223.51 306.899 225.277L324.926 229.72C331.675 231.384 338.804 229.424 343.754 224.544L425.219 144.225ZM77.0976 419.453C77.0888 419.452 77.08 419.451 77.0712 419.451L76 431.403L77.0712 419.451L77.0976 419.453Z"/>
</symbol>

<symbol id="oo-key-white-icon" viewBox="0 0 24 24">
    <path d="M19.5429 7.60563L15.5429 11.5493L13.2571 10.9859L12.6857 8.73239L16.6857 4.56338C16 4.22535 15.2 4 14.2857 4C11.0857 4 8.57143 6.47887 8.57143 9.6338C8.57143 10.6479 8.8 11.5493 9.25714 12.338L4 17.5211V19.7746L6.51429 20L11.7714 14.7042C12.5714 15.0423 13.3714 15.2676 14.2857 15.2676C17.4857 15.2676 20 12.7887 20 9.6338C20 8.84507 19.8857 8.16901 19.5429 7.60563Z" stroke="white" stroke-miterlimit="10"/>
</symbol>

<symbol id="oo-unpin-icon" viewBox="0 0 24 24">
    <mask id="path-1-inside-1" fill="white">
    <path fill-rule="evenodd" clip-rule="evenodd" d="M5 21L19 21L19 18L16.1999 18L16.1999 12L19 12L19 9.42857L13.3999 9.42857L13.3999 4.28572L11.9999 3L10.5999 4.28572L10.5999 9.42857L5 9.42857L5 12L7.79994 12L7.79994 18L5 18L5 21Z"/>
    </mask>
    <path d="M19 21L19 22.5L20.5 22.5L20.5 21L19 21ZM5 21L3.5 21L3.5 22.5L5 22.5L5 21ZM19 18L20.5 18L20.5 16.5L19 16.5L19 18ZM16.1999 18L14.6999 18L14.6999 19.5L16.1999 19.5L16.1999 18ZM16.1999 12L16.1999 10.5L14.6999 10.5L14.6999 12L16.1999 12ZM19 12L19 13.5L20.5 13.5L20.5 12L19 12ZM19 9.42857L20.5 9.42857L20.5 7.92857L19 7.92857L19 9.42857ZM13.3999 9.42857L11.8999 9.42857L11.8999 10.9286L13.3999 10.9286L13.3999 9.42857ZM13.3999 4.28572L14.8999 4.28572L14.8999 3.62669L14.4146 3.18092L13.3999 4.28572ZM11.9999 3L13.0146 1.89521L11.9999 0.963423L10.9853 1.89521L11.9999 3ZM10.5999 4.28572L9.58534 3.18092L9.09995 3.62669L9.09995 4.28572L10.5999 4.28572ZM10.5999 9.42857L10.5999 10.9286L12.0999 10.9286L12.0999 9.42857L10.5999 9.42857ZM5 9.42857L5 7.92857L3.5 7.92857L3.5 9.42857L5 9.42857ZM5 12L3.5 12L3.5 13.5L5 13.5L5 12ZM7.79994 12L9.29994 12L9.29994 10.5L7.79994 10.5L7.79994 12ZM7.79994 18L7.79994 19.5L9.29994 19.5L9.29994 18L7.79994 18ZM5 18L5 16.5L3.5 16.5L3.5 18L5 18ZM19 19.5L5 19.5L5 22.5L19 22.5L19 19.5ZM17.5 18L17.5 21L20.5 21L20.5 18L17.5 18ZM16.1999 19.5L19 19.5L19 16.5L16.1999 16.5L16.1999 19.5ZM14.6999 12L14.6999 18L17.6999 18L17.6999 12L14.6999 12ZM19 10.5L16.1999 10.5L16.1999 13.5L19 13.5L19 10.5ZM17.5 9.42857L17.5 12L20.5 12L20.5 9.42857L17.5 9.42857ZM13.3999 10.9286L19 10.9286L19 7.92857L13.3999 7.92857L13.3999 10.9286ZM11.8999 4.28572L11.8999 9.42857L14.8999 9.42857L14.8999 4.28572L11.8999 4.28572ZM10.9853 4.1048L12.3853 5.39051L14.4146 3.18092L13.0146 1.89521L10.9853 4.1048ZM11.6146 5.39051L13.0146 4.1048L10.9853 1.89521L9.58534 3.18092L11.6146 5.39051ZM12.0999 9.42857L12.0999 4.28572L9.09995 4.28572L9.09995 9.42857L12.0999 9.42857ZM5 10.9286L10.5999 10.9286L10.5999 7.92857L5 7.92857L5 10.9286ZM6.5 12L6.5 9.42857L3.5 9.42857L3.5 12L6.5 12ZM7.79994 10.5L5 10.5L5 13.5L7.79994 13.5L7.79994 10.5ZM9.29994 18L9.29994 12L6.29994 12L6.29994 18L9.29994 18ZM5 19.5L7.79994 19.5L7.79994 16.5L5 16.5L5 19.5ZM6.5 21L6.5 18L3.5 18L3.5 21L6.5 21Z" fill="#808080" mask="url(#path-1-inside-1)"/>
</symbol>

<symbol id="oo-select-topic" viewBox="0 0 512 512">
    <path fill-rule="evenodd" clip-rule="evenodd" d="M466 275.931V375.75C466 390.247 454.247 402 439.75 402H256L204.517 453.483C196.707 461.293 184.043 461.293 176.233 453.483L124.75 402H72.25C57.7525 402 46 390.247 46 375.75V113.25C46 98.7525 57.7525 87 72.25 87H238.713C235.099 97.2234 232.511 107.931 231.072 119H78V370H124.75H138.005L147.377 379.373L190.375 422.37L233.373 379.373L242.745 370H256H434V289.947C445.26 286.452 455.979 281.728 466 275.931Z"/>
    <path fill-rule="evenodd" clip-rule="evenodd" d="M382 256C446.065 256 498 204.065 498 140C498 75.935 446.065 24 382 24C317.935 24 266 75.935 266 140C266 204.065 317.935 256 382 256ZM370.401 199.409L463.905 105.905L439.298 81.2977L370.401 150.194L324.705 104.498L300.098 129.105L370.401 199.409Z"/>
</symbol>

<symbol id="oo-tr-pin" viewBox="0 0 24 24">
    <path d="M11 21L11 15L13 15L13 21L12 22L11 21Z"/>
    <path d="M7.87136 10.5383L7.95331 10.3723L7.92745 10.1889L6.85722 2.6L17.1428 2.6L16.0725 10.1889L16.0467 10.3723L16.1286 10.5383L18.0347 14.4L5.96526 14.4L7.87136 10.5383Z" stroke-width="1.2"/>
</symbol>

<symbol id="oo-unlock-topic" viewBox="0 0 512 512">
    <path fill-rule="evenodd" clip-rule="evenodd" d="M369 208.596H143C116.49 208.596 95 230.086 95 256.596V386.596C95 413.105 116.49 434.596 143 434.596H369C395.51 434.596 417 413.105 417 386.596V256.596C417 230.086 395.51 208.596 369 208.596ZM143 176.596C98.8172 176.596 63 212.413 63 256.596V386.596C63 430.778 98.8172 466.596 143 466.596H369C413.183 466.596 449 430.778 449 386.596V256.596C449 212.413 413.183 176.596 369 176.596H143Z"/>
    <path fill-rule="evenodd" clip-rule="evenodd" d="M144 147C144 85.1441 194.144 35 256 35C317.856 35 368 85.1441 368 147V148H336V147C336 102.817 300.183 67 256 67C211.817 67 176 102.817 176 147V193H144V147Z"/>
</symbol>

<symbol id="oo-timer-topic" viewBox="0 0 512 512">
    <path fill-rule="evenodd" clip-rule="evenodd" d="M255.667 433.999C341.087 433.999 410.333 364.753 410.333 279.333C410.333 193.913 341.087 124.666 255.667 124.666C170.247 124.666 101 193.913 101 279.333C101 364.753 170.247 433.999 255.667 433.999ZM255.667 465.999C358.76 465.999 442.333 382.426 442.333 279.333C442.333 176.24 358.76 92.666 255.667 92.666C152.574 92.666 69 176.24 69 279.333C69 382.426 152.574 465.999 255.667 465.999Z"/>
    <path fill-rule="evenodd" clip-rule="evenodd" d="M204.667 81C204.667 52.8335 227.5 30 255.667 30C283.833 30 306.667 52.8335 306.667 81V116H274.667V81C274.667 70.5066 266.16 62 255.667 62C245.173 62 236.667 70.5066 236.667 81V116H204.667V81Z"/>
    <path fill-rule="evenodd" clip-rule="evenodd" d="M255.667 146.666C264.503 146.666 271.667 153.829 271.667 162.666V258.84L345.119 240.477C353.692 238.334 362.379 243.546 364.522 252.119C366.665 260.691 361.453 269.378 352.88 271.522L259.547 294.855C254.767 296.05 249.703 294.976 245.82 291.944C241.936 288.912 239.667 284.26 239.667 279.333V162.666C239.667 153.829 246.83 146.666 255.667 146.666Z"/>
</symbol>

<symbol id="oo-timestamp-topic">
    <path fill-rule="evenodd" clip-rule="evenodd" d="M15.5 12L19 6V3H5V6L8 12L5 18V21H19V18L15.5 12ZM17.5 18.4055L13.7634 12L17.5 5.59448V4.5H6.5V5.6459L9.67705 12L6.5 18.3541V19.5H17.5V18.4055Z"/>
    <path d="M8.5 18L11.5 12H12L15.5 18H8.5Z"/>
    <path d="M11.5 11L10 8H13.5L12 11H11.5Z"/>
</symbol>

<symbol id="oo-reset-topic" viewBox="0 0 512 512">
    <path fill-rule="evenodd" clip-rule="evenodd" d="M255.75 83C163.104 83 88 158.104 88 250.75C88 343.396 163.104 418.5 255.75 418.5C264.587 418.5 271.75 425.663 271.75 434.5C271.75 443.337 264.587 450.5 255.75 450.5C145.431 450.5 56 361.069 56 250.75C56 140.431 145.431 51 255.75 51C366.069 51 455.5 140.431 455.5 250.75C455.5 259.587 448.337 266.75 439.5 266.75C430.663 266.75 423.5 259.587 423.5 250.75C423.5 158.104 348.396 83 255.75 83Z"/>
    <path fill-rule="evenodd" clip-rule="evenodd" d="M218.186 370.686C224.435 364.438 234.565 364.438 240.814 370.686L293.314 423.186C299.562 429.435 299.562 439.565 293.314 445.814L240.814 498.314C234.565 504.562 224.435 504.562 218.186 498.314C211.938 492.065 211.938 481.935 218.186 475.686L259.373 434.5L218.186 393.314C211.938 387.065 211.938 376.935 218.186 370.686Z"/>
</symbol>

<symbol id="oo-archive-topic" viewBox="0 0 512 512">
    <path fill-rule="evenodd" clip-rule="evenodd" d="M194.43 132L223.437 175.511C233.081 189.977 249.317 198.667 266.704 198.667H424V379.111H88V132H194.43ZM266.704 166.667C260.017 166.667 253.772 163.325 250.063 157.761L217.493 108.906C213.784 103.342 207.539 100 200.852 100H76C64.9543 100 56 108.954 56 120V391.111C56 402.157 64.9543 411.111 76 411.111H436C447.046 411.111 456 402.157 456 391.111V186.667C456 175.621 447.046 166.667 436 166.667H266.704Z"/>
</symbol>

<symbol id="oo-unlisted-topic">
    <path fill-rule="evenodd" clip-rule="evenodd" d="M12 4.75C7.99594 4.75 4.75 7.99594 4.75 12C4.75 16.0041 7.99594 19.25 12 19.25C16.0041 19.25 19.25 16.0041 19.25 12C19.25 7.99594 16.0041 4.75 12 4.75ZM3.25 12C3.25 7.16751 7.16751 3.25 12 3.25C16.8325 3.25 20.75 7.16751 20.75 12C20.75 16.8325 16.8325 20.75 12 20.75C7.16751 20.75 3.25 16.8325 3.25 12Z"/>
    <path fill-rule="evenodd" clip-rule="evenodd" d="M8.96979 8.96966C9.26269 8.67677 9.73756 8.67677 10.0305 8.96966L15.0305 13.9697C15.3233 14.2626 15.3233 14.7374 15.0305 15.0303C14.7376 15.3232 14.2627 15.3232 13.9698 15.0303L8.96979 10.0303C8.6769 9.73743 8.6769 9.26255 8.96979 8.96966Z"/>
    <path fill-rule="evenodd" clip-rule="evenodd" d="M8.96966 15.0303C8.67677 14.7374 8.67677 14.2626 8.96966 13.9697L13.9697 8.96967C14.2626 8.67678 14.7374 8.67678 15.0303 8.96967C15.3232 9.26256 15.3232 9.73744 15.0303 10.0303L10.0303 15.0303C9.73743 15.3232 9.26255 15.3232 8.96966 15.0303Z"/>
</symbol>

<symbol id="oo-personal-message" viewBox="0 0 512 512">
    <path fill-rule="evenodd" clip-rule="evenodd" d="M68 108V404H444V108H68ZM56 76C44.9543 76 36 84.9543 36 96V416C36 427.046 44.9543 436 56 436H456C467.046 436 476 427.046 476 416V96C476 84.9543 467.046 76 456 76H56Z"/>
    <path fill-rule="evenodd" clip-rule="evenodd" d="M49.9492 86.424C56.6187 80.6273 66.7246 81.3348 72.5213 88.0043L256.001 299.11L439.48 88.0043C445.277 81.3348 455.383 80.6273 462.052 86.424C468.722 92.2207 469.429 102.327 463.632 108.996L270.341 331.391C262.767 340.106 249.235 340.106 241.66 331.391L48.3688 108.996C42.5721 102.327 43.2796 92.2207 49.9492 86.424Z"/>
    <path fill-rule="evenodd" clip-rule="evenodd" d="M207.016 266.335L60.3489 412.585L36.096 391.915L182.763 245.665L207.016 266.335Z"/>
    <path fill-rule="evenodd" clip-rule="evenodd" d="M451.849 412.597L305.183 266.347L329.063 245.64L475.73 391.89L451.849 412.597Z"/>
</symbol>

<symbol id="oo-personal-message16">
    <path fill-rule="evenodd" clip-rule="evenodd" d="M2.2 3.2V12.8H13.8V3.2H2.2ZM2 2C1.44772 2 1 2.44772 1 3V13C1 13.5523 1.44772 14 2 14H14C14.5523 14 15 13.5523 15 13V3C15 2.44772 14.5523 2 14 2H2Z"/>
    <path fill-rule="evenodd" clip-rule="evenodd" d="M1.59303 2.55915C1.83652 2.33438 2.21612 2.34957 2.44088 2.59306L7.70608 8.29702C7.86446 8.46861 8.13553 8.46861 8.29392 8.29702L13.5591 2.59306C13.7839 2.34957 14.1635 2.33438 14.407 2.55915C14.6505 2.78391 14.6656 3.1635 14.4409 3.407L9.17568 9.11096C8.54214 9.79729 7.45785 9.7973 6.82431 9.11096L1.55911 3.407C1.33435 3.1635 1.34954 2.78391 1.59303 2.55915Z"/>
    <path fill-rule="evenodd" clip-rule="evenodd" d="M6.94599 8.40133L2.44601 13.4013L1.55405 12.5986L6.05403 7.59858L6.94599 8.40133Z"/>
    <path fill-rule="evenodd" clip-rule="evenodd" d="M13.554 13.4014L9.05403 8.40139L9.94598 7.59863L14.446 12.5986L13.554 13.4014Z"/>
</symbol>

<symbol id="oo-slow-mode">
    <path fill-rule="evenodd" clip-rule="evenodd" d="M12 5.75C7.44365 5.75 3.75 9.44365 3.75 14C3.75 15.365 4.08091 16.6505 4.66624 17.7828L3.33376 18.4716C2.64095 17.1314 2.25 15.6103 2.25 14C2.25 8.61522 6.61522 4.25 12 4.25C17.3848 4.25 21.75 8.61522 21.75 14C21.75 15.6103 21.3591 17.1314 20.6662 18.4716L19.3338 17.7828C19.9191 16.6505 20.25 15.365 20.25 14C20.25 9.44365 16.5563 5.75 12 5.75Z"/>
    <path fill-rule="evenodd" clip-rule="evenodd" d="M7 15H3V13.5H7V15Z"/>
    <path fill-rule="evenodd" clip-rule="evenodd" d="M21 15H17V13.5H21V15Z"/>
    <path fill-rule="evenodd" clip-rule="evenodd" d="M6.36914 11.4056L7.40559 10.3691L15.1884 15.3723L11.3723 19.1884L6.36914 11.4056ZM9.49652 13.4965L11.6277 16.8117L12.8117 15.6277L9.49652 13.4965Z"/>
    <path fill-rule="evenodd" clip-rule="evenodd" d="M11.25 9V5H12.75V9H11.25Z"/>
</symbol>

<symbol id="oo-history-topic">
    <path fill-rule="evenodd" clip-rule="evenodd" d="M2.46967 9.46967C2.76256 9.17678 3.23744 9.17678 3.53033 9.46967L5 10.9393L6.46967 9.46967C6.76256 9.17678 7.23744 9.17678 7.53033 9.46967C7.82322 9.76256 7.82322 10.2374 7.53033 10.5303L5.53033 12.5303C5.23744 12.8232 4.76256 12.8232 4.46967 12.5303L2.46967 10.5303C2.17678 10.2374 2.17678 9.76256 2.46967 9.46967Z"/>
    <path fill-rule="evenodd" clip-rule="evenodd" d="M12 8.25C12.4142 8.25 12.75 8.58579 12.75 9V12.25H15C15.4142 12.25 15.75 12.5858 15.75 13C15.75 13.4142 15.4142 13.75 15 13.75H12C11.5858 13.75 11.25 13.4142 11.25 13V9C11.25 8.58579 11.5858 8.25 12 8.25Z"/>
    <path fill-rule="evenodd" clip-rule="evenodd" d="M19.25 11.5C19.25 7.77208 16.2279 4.75 12.5 4.75C8.77208 4.75 5.75 7.77208 5.75 11.5L4.25 11.5C4.25 6.94365 7.94365 3.25 12.5 3.25C17.0563 3.25 20.75 6.94365 20.75 11.5C20.75 16.0563 17.0563 19.75 12.5 19.75L12.5 18.25C16.2279 18.25 19.25 15.2279 19.25 11.5Z"/>
</symbol>

<symbol id="oo-person-icon" viewBox="0 0 512 512">
    <path fill-rule="evenodd" clip-rule="evenodd" d="M256.5 195.341C297.259 195.341 330.3 162.279 330.3 121.494C330.3 80.7104 297.259 47.6484 256.5 47.6484C215.741 47.6484 182.7 80.7104 182.7 121.494C182.7 162.279 215.741 195.341 256.5 195.341ZM256.5 226.989C314.727 226.989 361.929 179.757 361.929 121.494C361.929 63.2315 314.727 16 256.5 16C198.273 16 151.071 63.2315 151.071 121.494C151.071 179.757 198.273 226.989 256.5 226.989ZM441 464.352V411.604C441 324.21 370.197 253.363 282.857 253.363H230.143C142.803 253.363 72 324.21 72 411.604V464.352V490.725V496H441V490.725V464.352ZM409.371 464.352V411.604C409.371 341.689 352.729 285.011 282.857 285.011H230.143C160.271 285.011 103.629 341.689 103.629 411.604V464.352H409.371Z"/>
</symbol>

<symbol id="oo-person-icon-fill" viewBox="0 0 512 512">
    <path fill-rule="evenodd" clip-rule="evenodd" d="M256.5 226.989C314.727 226.989 361.929 179.757 361.929 121.494C361.929 63.2315 314.727 16 256.5 16C198.273 16 151.071 63.2315 151.071 121.494C151.071 179.757 198.273 226.989 256.5 226.989ZM441 464.352V411.604C441 324.21 370.197 253.363 282.857 253.363H230.143C142.803 253.363 72 324.21 72 411.604V464.352V490.725V496H441V490.725V464.352Z"/>
</symbol>

<symbol id="oo-person16-icon">
    <path fill-rule="evenodd" clip-rule="evenodd" d="M8 5.8C8.99411 5.8 9.8 4.99411 9.8 4C9.8 3.00589 8.99411 2.2 8 2.2C7.00589 2.2 6.2 3.00589 6.2 4C6.2 4.99411 7.00589 5.8 8 5.8ZM8 7C9.65685 7 11 5.65685 11 4C11 2.34315 9.65685 1 8 1C6.34315 1 5 2.34315 5 4C5 5.65685 6.34315 7 8 7Z"/>
    <path fill-rule="evenodd" clip-rule="evenodd" d="M13.0023 14.9999V12C13.0023 9.79086 11.2114 8 9.0023 8H6.99982C4.79068 8 2.99982 9.79086 2.99982 12V14.9999H4.19982V12C4.19982 10.4536 5.45342 9.2 6.99982 9.2H9.0023C10.5487 9.2 11.8023 10.4536 11.8023 12V14.9999H13.0023Z"/>
    <path d="M3 14H13V15.2H3V14Z"/>
</symbol>

<symbol id="oo-activity-icon" viewBox="0 0 512 512">
    <path fill-rule="evenodd" clip-rule="evenodd" d="M416 99H96C91.5818 99 88 102.582 88 107V404.778C88 409.196 91.5817 412.778 96 412.778H416C420.418 412.778 424 409.196 424 404.778V107C424 102.582 420.418 99 416 99ZM96 67C73.9086 67 56 84.9087 56 107V404.778C56 426.869 73.9086 444.778 96 444.778H416C438.091 444.778 456 426.869 456 404.778V107C456 84.9086 438.091 67 416 67H96Z"/>
    <path d="M144.889 169.222C144.889 161.858 150.858 155.889 158.222 155.889H353.778C361.141 155.889 367.111 161.858 367.111 169.222C367.111 176.586 361.141 182.556 353.778 182.556H158.222C150.858 182.556 144.889 176.586 144.889 169.222Z"/>
    <path d="M144.889 258.111C144.889 250.747 150.858 244.778 158.222 244.778H353.778C361.141 244.778 367.111 250.747 367.111 258.111C367.111 265.475 361.141 271.444 353.778 271.444H158.222C150.858 271.444 144.889 265.475 144.889 258.111Z"/>
    <path d="M144.889 347C144.889 339.636 150.858 333.667 158.222 333.667H353.778C361.141 333.667 367.111 339.636 367.111 347C367.111 354.364 361.141 360.333 353.778 360.333H158.222C150.858 360.333 144.889 354.364 144.889 347Z"/>
</symbol>

<symbol id="oo-activity16-icon">
    <path fill-rule="evenodd" clip-rule="evenodd" d="M13 3.2H3C2.55817 3.2 2.2 3.55817 2.2 4V12C2.2 12.4418 2.55817 12.8 3 12.8H13C13.4418 12.8 13.8 12.4418 13.8 12V4C13.8 3.55817 13.4418 3.2 13 3.2ZM3 2C1.89543 2 1 2.89543 1 4V12C1 13.1046 1.89543 14 3 14H13C14.1046 14 15 13.1046 15 12V4C15 2.89543 14.1046 2 13 2H3Z"/>
    <path d="M4 6H12V7.2H4V6Z"/>
    <path d="M4 9H12V10.2H4V9Z"/>
</symbol>

<symbol id="oo-invite-icon" viewBox="0 0 512 512">
    <path fill-rule="evenodd" clip-rule="evenodd" d="M86 62C72.7452 62 62 72.7452 62 86V426C62 439.255 72.7452 450 86 450H426C439.255 450 450 439.255 450 426V256C450 247.163 457.163 240 466 240C474.837 240 482 247.163 482 256V426C482 456.928 456.928 482 426 482H86C55.0721 482 30 456.928 30 426V86C30 55.072 55.0721 30 86 30H256C264.837 30 272 37.1634 272 46C272 54.8366 264.837 62 256 62H86Z"/>
    <path fill-rule="evenodd" clip-rule="evenodd" d="M342 42C350.837 42 358 49.1634 358 58V280C358 288.837 350.837 296 342 296C333.163 296 326 288.837 326 280V58C326 49.1634 333.163 42 342 42Z"/>
    <path fill-rule="evenodd" clip-rule="evenodd" d="M215 169C215 160.163 222.163 153 231 153H453C461.837 153 469 160.163 469 169C469 177.837 461.837 185 453 185H231C222.163 185 215 177.837 215 169Z"/>
</symbol>

<symbol id="oo-invite16-icon">
    <path fill-rule="evenodd" clip-rule="evenodd" d="M2.49999 2.10002C2.27908 2.10002 2.09999 2.27911 2.09999 2.50002V13.5C2.09999 13.7209 2.27908 13.9 2.49999 13.9H13.5C13.7209 13.9 13.9 13.7209 13.9 13.5V8.00002C13.9 7.66865 14.1686 7.40002 14.5 7.40002C14.8314 7.40002 15.1 7.66865 15.1 8.00002V13.5C15.1 14.3837 14.3836 15.1 13.5 15.1H2.49999C1.61634 15.1 0.899994 14.3837 0.899994 13.5V2.50002C0.899994 1.61637 1.61634 0.900024 2.49999 0.900024H7.99999C8.33136 0.900024 8.59999 1.16865 8.59999 1.50002C8.59999 1.8314 8.33136 2.10002 7.99999 2.10002H2.49999Z"/>
    <path fill-rule="evenodd" clip-rule="evenodd" d="M10.6 0.900024C10.9314 0.900024 11.2 1.16865 11.2 1.50002L11.2 9.40002C11.2 9.7314 10.9314 10 10.6 10C10.2686 10 10 9.7314 10 9.40002L10 1.50002C10 1.16865 10.2686 0.900024 10.6 0.900024Z"/>
    <path fill-rule="evenodd" clip-rule="evenodd" d="M6.39999 5.50002C6.39999 5.16865 6.66862 4.90002 6.99999 4.90002H14C14.3314 4.90002 14.6 5.16865 14.6 5.50002C14.6 5.8314 14.3314 6.10002 14 6.10002H6.99999C6.66862 6.10002 6.39999 5.8314 6.39999 5.50002Z"/>
</symbol>

<symbol id="oo-wiki16-icon">
    <path fill-rule="evenodd" clip-rule="evenodd" d="M6 9.99997V7.2727L12.5656 0.707078C12.9561 0.316554 13.5893 0.316553 13.9798 0.707078L15.2929 2.02014C15.6834 2.41066 15.6834 3.04383 15.2929 3.43435L8.72727 9.99997H6ZM8.23022 8.79997L14.3029 2.72724L13.2727 1.69703L7.2 7.76976V8.79997H8.23022Z"/>
    <path fill-rule="evenodd" clip-rule="evenodd" d="M3.49999 3.10002C3.27908 3.10002 3.09999 3.27911 3.09999 3.50002V12.5C3.09999 12.7209 3.27908 12.9 3.49999 12.9H12.5C12.7209 12.9 12.9 12.7209 12.9 12.5V8.00002C12.9 7.66865 13.1686 7.40002 13.5 7.40002C13.8314 7.40002 14.1 7.66865 14.1 8.00002V12.5C14.1 13.3837 13.3836 14.1 12.5 14.1H3.49999C2.61634 14.1 1.89999 13.3837 1.89999 12.5V3.50002C1.89999 2.61637 2.61634 1.90002 3.49999 1.90002H7.99999C8.33136 1.90002 8.59999 2.16865 8.59999 2.50002C8.59999 2.8314 8.33136 3.10002 7.99999 3.10002H3.49999Z"/>
</symbol>

<symbol id="oo-grant-icon" viewBox="0 0 512 512">
    <path fill-rule="evenodd" clip-rule="evenodd" d="M256 104.331L218.547 185.44C210.967 201.854 195.406 213.153 177.453 215.279L88.7201 225.788L154.283 286.351C167.577 298.632 173.53 316.942 169.999 334.693L152.587 422.224L230.623 378.592C246.392 369.775 265.608 369.775 281.378 378.592L359.413 422.224L342.001 334.693C338.47 316.942 344.423 298.632 357.718 286.351L423.28 225.788L334.548 215.279C316.594 213.153 301.033 201.854 293.454 185.44L256 104.331ZM274.158 67.3224C267.006 51.8352 244.994 51.8352 237.843 67.3224L189.494 172.025C186.579 178.338 180.594 182.683 173.689 183.501L59.0979 197.073C42.1434 199.081 35.3381 220.04 47.8792 231.625L132.569 309.857C137.683 314.581 139.972 321.623 138.614 328.45L116.129 441.488C112.799 458.225 130.611 471.175 145.505 462.847L246.24 406.523C252.305 403.131 259.696 403.131 265.761 406.523L366.496 462.847C381.39 471.175 399.201 458.225 395.872 441.488L373.386 328.45C372.028 321.623 374.318 314.581 379.431 309.857L464.121 231.625C476.662 220.04 469.857 199.081 452.902 197.073L338.311 183.501C331.406 182.683 325.421 178.338 322.506 172.025L274.158 67.3224Z"/>
</symbol>

<symbol id="oo-settings">
    <path fill-rule="evenodd" clip-rule="evenodd" d="M10.4324 2.02166C10.9289 1.93889 11.4883 1.89999 12 1.89999C12.5189 1.89999 13.037 1.93994 13.554 2.01949L14.2886 2.13254L14.9693 5.04524C15.3652 5.22713 15.75 5.445 16.111 5.7008L19.015 4.87085L19.4724 5.44265C20.1 6.22736 20.6658 7.14981 21.035 8.17561L21.2808 8.85848L19.1109 10.8792C19.1332 11.0975 19.1444 11.3164 19.1444 11.5356C19.1444 11.738 19.1352 11.9684 19.0991 12.2116L21.2097 14.1771L20.9639 14.8599C20.6022 15.8648 20.0759 16.7997 19.3804 17.6182L18.9136 18.1676L16.0663 17.3057C15.7079 17.5587 15.3263 17.7744 14.9338 17.9548L14.2553 20.8577L13.532 20.9783C13.0355 21.0611 12.4761 21.1 11.9644 21.1C11.4455 21.1 10.9274 21.0601 10.4105 20.9805L9.67579 20.8674L8.99507 17.9548C8.6026 17.7744 8.22092 17.5587 7.86258 17.3057L4.99269 18.1744L4.52761 17.5929C3.90001 16.8082 3.33417 15.8857 2.96498 14.8599L2.71921 14.1771L4.88903 12.1564C4.86674 11.938 4.85554 11.7192 4.85554 11.5C4.85554 11.2808 4.86674 11.062 4.88903 10.8436L2.71921 8.82292L2.96498 8.14004C3.32664 7.13516 3.85295 6.20025 4.54843 5.38183L5.01346 4.83459L7.89601 5.69583C8.25497 5.44218 8.63738 5.22595 9.03063 5.04524L9.70907 2.14225L10.4324 2.02166ZM10.6954 3.19475L10.0603 5.9124L9.77461 6.02992C9.27391 6.2359 8.79959 6.50253 8.38229 6.82925L8.13796 7.02054L5.42089 6.20873C4.8591 6.88197 4.42422 7.65054 4.11663 8.48452L6.16363 10.3908L6.11602 10.7041C6.0757 10.9694 6.05554 11.2347 6.05554 11.5C6.05554 11.7653 6.0757 12.0306 6.11602 12.2959L6.16363 12.6091L4.11667 14.5154C4.42473 15.3465 4.88996 16.1151 5.4227 16.7905L8.10217 15.9794L8.34756 16.1714C8.76466 16.4978 9.23869 16.7642 9.73906 16.9701L10.0247 17.0876L10.6597 19.8045C11.0947 19.8682 11.5296 19.9 11.9644 19.9C12.3985 19.9 12.8636 19.8683 13.269 19.8052L13.9041 17.0876L14.1898 16.9701C14.6902 16.7642 15.1642 16.4978 15.5813 16.1714L15.8267 15.9794L18.5081 16.7911C19.0699 16.1179 19.5047 15.3494 19.8122 14.5155L17.7732 12.6166L17.8647 12.2693C17.9265 12.0349 17.9444 11.7869 17.9444 11.5356C17.9444 11.2703 17.9243 11.005 17.884 10.7397L17.8363 10.4264L19.8833 8.52013C19.5751 7.68867 19.1096 6.91978 18.5766 6.24421L15.8613 7.02021L15.6204 6.8314C15.2025 6.5037 14.7272 6.23635 14.2254 6.02992L13.9397 5.9124L13.3047 3.19551C12.8697 3.13182 12.4348 3.09999 12 3.09999C11.5659 3.09999 11.1008 3.13171 10.6954 3.19475Z"/>
    <path fill-rule="evenodd" clip-rule="evenodd" d="M12 13.8C13.2703 13.8 14.3 12.7703 14.3 11.5C14.3 10.2297 13.2703 9.2 12 9.2C10.7297 9.2 9.7 10.2297 9.7 11.5C9.7 12.7703 10.7297 13.8 12 13.8ZM12 15C13.933 15 15.5 13.433 15.5 11.5C15.5 9.567 13.933 8 12 8C10.067 8 8.5 9.567 8.5 11.5C8.5 13.433 10.067 15 12 15Z"/>
</symbol>

<symbol id="oo-settings16">
    <path fill-rule="evenodd" clip-rule="evenodd" d="M8 0.899994C7.60718 0.899994 7.17692 0.928423 6.79329 0.989408L6.15059 1.09158L5.63058 3.21336C5.36881 3.33203 5.11314 3.47063 4.86998 3.63029L2.66514 3.00211L2.25466 3.46274C1.71406 4.06937 1.30461 4.76281 1.02327 5.50824L0.792847 6.11873L2.46068 7.59984C2.44914 7.73295 2.44334 7.86636 2.44334 7.99999C2.44334 8.13363 2.44914 8.26703 2.46068 8.40014L0.792847 9.88125L1.02327 10.4918C1.3115 11.2554 1.75156 11.9381 2.23572 12.5153L2.64677 13.0054L4.84492 12.3709C5.08751 12.5301 5.34255 12.6683 5.60365 12.7866L6.12568 14.9166L6.77812 15.0124C7.17557 15.0707 7.57402 15.1 7.97307 15.1C8.3659 15.1 8.79616 15.0716 9.17979 15.0106L9.82248 14.9084L10.3425 12.7866C10.6036 12.6683 10.8586 12.5301 11.1012 12.3709L13.2794 12.9997L13.6915 12.5372C14.2321 11.9306 14.6415 11.2372 14.9229 10.4918L15.1533 9.88126L13.5338 8.44305C13.5518 8.29193 13.5567 8.15043 13.5567 8.02568C13.5567 7.89205 13.5509 7.75864 13.5393 7.62553L15.2072 6.14442L14.9767 5.53392C14.6885 4.77023 14.2484 4.08759 13.7643 3.51033L13.36 3.0283L11.1362 3.63434C10.8912 3.47297 10.6334 3.33303 10.3694 3.21336L9.8474 1.08335L9.19495 0.98761C8.7975 0.929287 8.39906 0.899994 8 0.899994ZM6.65036 4.0936L7.12577 2.15384C7.40231 2.11812 7.71008 2.09999 8 2.09999C8.29142 2.09999 8.58292 2.11831 8.87452 2.15498L9.34964 4.0936L9.63924 4.2072C10.0099 4.35259 10.3585 4.53998 10.6632 4.76776L10.8977 4.94309L12.9329 4.38847C13.2774 4.81585 13.5777 5.29082 13.7903 5.79775L12.2614 7.15549L12.3132 7.48021C12.3422 7.66228 12.3567 7.84406 12.3567 8.02568C12.3567 8.19889 12.3435 8.35939 12.303 8.50624L12.2034 8.8665L13.7369 10.2283C13.5259 10.7396 13.2417 11.2138 12.8843 11.6366L10.8725 11.0559L10.6337 11.2342C10.3296 11.4611 9.98189 11.6478 9.61231 11.7928L9.32271 11.9064L8.84731 13.8462C8.57077 13.8819 8.263 13.9 7.97307 13.9C7.68165 13.9 7.39016 13.8817 7.09856 13.845L6.62343 11.9064L6.33384 11.7928C5.96426 11.6478 5.61655 11.4611 5.3125 11.2342L5.07362 11.0559L3.06577 11.6355C2.72184 11.2086 2.42199 10.7342 2.20967 10.2279L3.73858 8.87019L3.68683 8.54547C3.65782 8.36339 3.64334 8.18162 3.64334 7.99999C3.64334 7.81837 3.65782 7.63659 3.68683 7.45452L3.73858 7.1298L2.20926 5.77169C2.42032 5.26026 2.70459 4.78593 3.06213 4.36297L5.10096 4.94385L5.33882 4.76626C5.64301 4.53916 5.99094 4.35227 6.36076 4.2072L6.65036 4.0936ZM9.8 8C9.8 8.99411 8.99411 9.8 8 9.8C7.00589 9.8 6.2 8.99411 6.2 8C6.2 7.00589 7.00589 6.2 8 6.2C8.99411 6.2 9.8 7.00589 9.8 8ZM11 8C11 9.65685 9.65685 11 8 11C6.34315 11 5 9.65685 5 8C5 6.34315 6.34315 5 8 5C9.65685 5 11 6.34315 11 8Z"/>
</symbol>

<symbol id="oo-block16">
    <path fill-rule="evenodd" clip-rule="evenodd" d="M12.4685 3.37484L4.46854 13.3748L3.53149 12.6252L11.5315 2.62521L12.4685 3.37484Z"/>
    <path fill-rule="evenodd" clip-rule="evenodd" d="M8 13.8C11.2033 13.8 13.8 11.2033 13.8 8C13.8 4.79675 11.2033 2.2 8 2.2C4.79675 2.2 2.2 4.79675 2.2 8C2.2 11.2033 4.79675 13.8 8 13.8ZM8 15C11.866 15 15 11.866 15 8C15 4.13401 11.866 1 8 1C4.13401 1 1 4.13401 1 8C1 11.866 4.13401 15 8 15Z"/>
</symbol>

<symbol id="oo-logout16">
    <mask id="path-1-inside-1">
    <path fill-rule="evenodd" clip-rule="evenodd" d="M9.4041 1.03292C9.60822 0.950915 9.8353 1.02551 9.97042 1.21896L14.8884 7.31204C15.0269 7.5104 15.0375 7.78865 14.9145 8.00001L9.99649 14.7402C9.87199 14.9541 9.63992 15.0494 9.4251 14.9749C9.21028 14.9004 9.06335 14.6737 9.06335 14.4166V11.8889H4.50934C4.22804 11.8889 4 11.6277 4 11.3055V4.69446C4 4.37229 4.22804 4.11113 4.50934 4.11113L9.06335 4.11111V1.58336C9.06335 1.33563 9.19998 1.11492 9.4041 1.03292Z"/>
    </mask>
    <path d="M9.97042 1.21896L8.98667 1.90614C9.00255 1.92888 9.01922 1.95107 9.03664 1.97265L9.97042 1.21896ZM14.8884 7.31204L15.8721 6.62485C15.8563 6.60211 15.8396 6.57993 15.8222 6.55834L14.8884 7.31204ZM14.9145 8.00001L15.8838 8.70732C15.9082 8.67397 15.9308 8.63939 15.9515 8.60371L14.9145 8.00001ZM9.99649 14.7402L9.02711 14.0329C9.00277 14.0662 8.98017 14.1008 8.9594 14.1365L9.99649 14.7402ZM9.4251 14.9749L9.03195 16.1087H9.03195L9.4251 14.9749ZM9.06335 11.8889H10.2634C10.2634 11.2261 9.7261 10.6889 9.06335 10.6889V11.8889ZM4.50934 4.11113V5.31113L4.50935 5.31113L4.50934 4.11113ZM9.06335 4.11111L9.06336 5.31111C9.7261 5.3111 10.2634 4.77385 10.2634 4.11111H9.06335ZM10.9542 0.531775C10.5325 -0.071903 9.73093 -0.391599 8.95676 -0.0805881L9.85143 2.14642C9.4855 2.29343 9.1381 2.12293 8.98667 1.90614L10.9542 0.531775ZM15.8222 6.55834L10.9042 0.465267L9.03664 1.97265L13.9546 8.06573L15.8222 6.55834ZM15.9515 8.60371C16.3065 7.99401 16.2821 7.2117 15.8721 6.62485L13.9046 7.99922C13.8321 7.89534 13.8038 7.78795 13.8004 7.69658C13.7969 7.60509 13.8171 7.49993 13.8774 7.39631L15.9515 8.60371ZM10.9659 15.4475L15.8838 8.70732L13.9451 7.2927L9.02711 14.0329L10.9659 15.4475ZM9.03195 16.1087C9.85571 16.3943 10.6575 15.99 11.0336 15.3439L8.9594 14.1365C9.08649 13.9182 9.42412 13.7045 9.81824 13.8412L9.03195 16.1087ZM7.86335 14.4166C7.86335 15.0967 8.25578 15.8396 9.03195 16.1087L9.81824 13.8412C10.1648 13.9613 10.2634 14.2507 10.2634 14.4166H7.86335ZM7.86335 11.8889V14.4166H10.2634V11.8889H7.86335ZM4.50934 13.0889H9.06335V10.6889H4.50934V13.0889ZM2.8 11.3055C2.8 12.1324 3.4176 13.0889 4.50934 13.0889V10.6889C4.7572 10.6889 4.94658 10.8068 5.0531 10.9288C5.15753 11.0484 5.2 11.1852 5.2 11.3055H2.8ZM2.8 4.69446V11.3055H5.2V4.69446H2.8ZM4.50934 2.91113C3.4176 2.91113 2.8 3.86759 2.8 4.69446H5.2C5.2 4.81481 5.15753 4.95164 5.0531 5.07124C4.94658 5.19324 4.7572 5.31113 4.50934 5.31113V2.91113ZM9.06335 2.91111L4.50934 2.91113L4.50935 5.31113L9.06336 5.31111L9.06335 2.91111ZM7.86335 1.58336V4.11111H10.2634V1.58336H7.86335ZM8.95676 -0.0805881C8.22823 0.212091 7.86335 0.925314 7.86335 1.58336H10.2634C10.2634 1.74594 10.1717 2.01774 9.85143 2.14642L8.95676 -0.0805881Z" mask="url(#path-1-inside-1)"/>
    <path fill-rule="evenodd" clip-rule="evenodd" d="M0.899994 2.49999C0.899994 1.61634 1.61634 0.899994 2.49999 0.899994H7.49999C7.83136 0.899994 8.09999 1.16862 8.09999 1.49999C8.09999 1.83136 7.83136 2.09999 7.49999 2.09999H2.49999C2.27908 2.09999 2.09999 2.27908 2.09999 2.49999V13.5C2.09999 13.7209 2.27908 13.9 2.49999 13.9H7.49999C7.83136 13.9 8.09999 14.1686 8.09999 14.5C8.09999 14.8314 7.83136 15.1 7.49999 15.1H2.49999C1.61634 15.1 0.899994 14.3836 0.899994 13.5V2.49999Z"/>
</symbol>

<symbol id="oo-medal-badges" viewBox="0 0 512 512">
    <path fill-rule="evenodd" clip-rule="evenodd" d="M256 456C366.457 456 456 366.457 456 256C456 145.543 366.457 56 256 56C145.543 56 56 145.543 56 256C56 366.457 145.543 456 256 456ZM291.267 207.459L256 136L220.733 207.459L141.873 218.918L198.937 274.541L185.466 353.082L256 316L326.534 353.082L313.063 274.541L370.127 218.918L291.267 207.459Z"/>
</symbol>

<symbol id="oo-medal16">
    <path fill-rule="evenodd" clip-rule="evenodd" d="M8 15C11.866 15 15 11.866 15 8C15 4.13401 11.866 1 8 1C4.13401 1 1 4.13401 1 8C1 11.866 4.13401 15 8 15ZM9.23431 6.30106L7.99996 3.8L6.76561 6.30106L4.00552 6.70213L6.00274 8.64893L5.53126 11.3979L7.99996 10.1L10.4687 11.3979L9.99718 8.64893L11.9944 6.70213L9.23431 6.30106Z"/>
</symbol>

</svg>