<svg width="72" height="72" viewBox="0 0 72 72" fill="none" xmlns="http://www.w3.org/2000/svg">
<path d="M66.5 48.4784V43.6207L64.5172 43.125L63.8233 41.4397L64.9138 39.6552L61.444 36.1853L59.6595 37.2759L57.9741 36.5819L57.4784 34.5H52.6207L52.125 36.4828L50.4397 37.1767L48.6552 36.0862L45.1853 39.556L46.2759 41.3405L45.5819 43.0259L43.5 43.5216V48.3793L45.4828 48.875L46.1767 50.5603L45.0862 52.3448L48.556 55.8147L50.3405 54.7241L52.0259 55.4181L52.5216 57.5H57.3793L57.875 55.5172L59.5603 54.8233L61.3448 55.9138L64.8147 52.444L63.7241 50.6595L64.4181 48.9741L66.5 48.4784ZM55.0991 50.4612C52.7198 50.4612 50.7371 48.4784 50.7371 46.0991C50.7371 43.7198 52.7198 41.7371 55.0991 41.7371C57.4784 41.7371 59.4612 43.7198 59.4612 46.0991C59.4612 48.4784 57.4784 50.4612 55.0991 50.4612Z" fill="#EFEFEF" stroke="#333333" stroke-miterlimit="10" stroke-linecap="round" stroke-linejoin="round"/>
<path d="M47.2339 62.5H25.8728C23.9616 62.5 22.5 60.8721 22.5 59.0116V15.9884C22.5 14.0116 24.074 12.5 25.8728 12.5H47.1215C49.0328 12.5 50.4943 14.1279 50.4943 15.9884V58.8953C50.6068 60.8721 49.0328 62.5 47.2339 62.5Z" fill="white" stroke="#333333" stroke-miterlimit="10"/>
<path d="M43 15H31C29.9333 15 29 14.0667 29 13H45C45 14.0667 44.0667 15 43 15Z" fill="#333333"/>
<path d="M41.3889 60H31.6111C31.2444 60 31 59.8 31 59.5C31 59.2 31.2444 59 31.6111 59H41.3889C41.7556 59 42 59.2 42 59.5C42 59.8 41.7556 60 41.3889 60Z" fill="#333333"/>
<path fill-rule="evenodd" clip-rule="evenodd" d="M35.9208 37.4109L32.2673 35.5396C32 35.3614 32 35.1832 32.2673 35.0049L35.9208 33.1337C36.2772 32.9554 36.8119 32.9554 37.0792 33.1337L40.7327 35.0049C41.0891 35.1832 41.0891 35.3614 40.7327 35.5396L37.0792 37.4109C36.7228 37.5891 36.1881 37.5891 35.9208 37.4109ZM32.2673 37.7673L35.9208 39.6386C36.1881 39.8168 36.7228 39.8168 37.0792 39.6386L40.7327 37.7673C41.0891 37.5891 41.0891 37.4109 40.7327 37.2327L39.4851 36.6089L37.0792 37.8564C36.8119 38.0347 36.2772 38.0347 35.9208 37.8564L33.5148 36.6089L32.2673 37.2327C32 37.3218 32 37.5891 32.2673 37.7673ZM40.7327 39.4604L39.4852 38.8366L37.0792 39.995C36.8119 40.1733 36.2772 40.1733 35.9208 39.995L33.5149 38.8366L32.2673 39.4604C31.9109 39.6386 31.9109 39.8168 32.2673 39.995L35.9208 41.8663C36.1881 42.0446 36.7228 42.0446 36.9901 41.8663L40.6436 39.995C41.0892 39.9059 41.0892 39.6386 40.7327 39.4604Z" fill="#FF6F3D"/>
<path d="M28.5 30.3197V25.5815L26.5 25.088L25.8 23.4099L26.9 21.633L23.4 18.1781L21.6 19.2639L19.9 18.573L19.4 16.5H14.6L14.1 18.4742L12.4 19.3627L10.6 18.1781L7.1 21.633L8.2 23.4099L7.6 25.088L5.5 25.5815V30.4185L7.5 30.912L8.2 32.5901L7.1 34.367L10.6 37.8219L12.4 36.7361L14.1 37.427L14.6 39.5H19.5L20 37.5258L21.7 36.8348L23.5 37.9206L27 34.4657L25.9 32.6888L26.6 31.0107L28.5 30.3197ZM17 32.294C14.6 32.294 12.6 30.3197 12.6 27.9506C12.6 25.5815 14.6 23.6073 17 23.6073C19.4 23.6073 21.4 25.5815 21.4 27.9506C21.4 30.3197 19.4 32.294 17 32.294Z" fill="#BDECFF" stroke="#333333" stroke-miterlimit="10" stroke-linecap="round" stroke-linejoin="round"/>
</svg>
