<svg width="72" height="72" viewBox="0 0 72 72" fill="none" xmlns="http://www.w3.org/2000/svg">
<path d="M26.5 15.7H13.5C11.8 15.7 10.5 17 10.5 18.7V48.7C10.5 50.4 11.8 51.7 13.5 51.7H59.5C61.2 51.7 62.5 50.4 62.5 48.7V18.7C62.5 17 61.2 15.7 59.5 15.7H47.5" fill="white"/>
<path d="M26.5 15.7H13.5C11.8 15.7 10.5 17 10.5 18.7V48.7C10.5 50.4 11.8 51.7 13.5 51.7H59.5C61.2 51.7 62.5 50.4 62.5 48.7V18.7C62.5 17 61.2 15.7 59.5 15.7H47.5" stroke="#333333" stroke-miterlimit="10" stroke-linecap="round" stroke-linejoin="round"/>
<path d="M62.5 45.7H10.5V48.7C10.5 50.4 11.8 51.7 13.5 51.7H59.5C61.2 51.7 62.5 50.4 62.5 48.7V45.7Z" fill="#EFEFEF" stroke="#333333" stroke-miterlimit="10" stroke-linecap="round" stroke-linejoin="round"/>
<path d="M44.5 51.7H28.5V59.7H44.5V51.7Z" fill="white" stroke="#333333" stroke-miterlimit="10" stroke-linecap="round" stroke-linejoin="round"/>
<path d="M49 62.7H24C23.2 62.7 22.5 62 22.5 61.2C22.5 60.4 23.2 59.7 24 59.7H49C49.8 59.7 50.5 60.4 50.5 61.2C50.5 62 49.8 62.7 49 62.7Z" fill="#EFEFEF" stroke="#333333" stroke-miterlimit="10" stroke-linecap="round" stroke-linejoin="round"/>
<path d="M48.5 27.5C45.6754 24.4565 41.6404 22.5 37 22.5C32.3596 22.5 28.3246 24.4565 25.5 27.5H48.5Z" fill="url(#paint0_linear)" stroke="#333333" stroke-miterlimit="10" stroke-linecap="round" stroke-linejoin="round"/>
<path d="M34.5 23.4V19.5H38.5V23.4L36.5 25" fill="#EFEFEF"/>
<path d="M36.5 20.5C39.8137 20.5 42.5 17.8137 42.5 14.5C42.5 11.1863 39.8137 8.5 36.5 8.5C33.1863 8.5 30.5 11.1863 30.5 14.5C30.5 17.8137 33.1863 20.5 36.5 20.5Z" fill="white" stroke="#333333" stroke-miterlimit="10" stroke-linecap="round" stroke-linejoin="round"/>
<path d="M42.5 14.3889C42.3889 11.1667 39.7222 8.5 36.5 8.5C33.1667 8.5 30.5 11.1667 30.5 14.5C30.5 14.7222 30.5 14.9444 30.5 15.2778C30.9444 15.3889 31.3889 15.5 31.8333 15.5C34.2778 15.5 36.2778 13.8333 36.8333 11.6111C37.6111 13.3889 39.3889 14.6111 41.5 14.6111C41.8333 14.3889 42.1667 14.3889 42.5 14.3889Z" fill="#AAAAAA" stroke="#333333" stroke-linecap="round" stroke-linejoin="round"/>
<path d="M34.5 22.8V20.5" stroke="#333333" stroke-miterlimit="10" stroke-linecap="round" stroke-linejoin="round"/>
<path d="M38.5 22.8V20.5" stroke="#333333" stroke-miterlimit="10" stroke-linecap="round" stroke-linejoin="round"/>
<path d="M27.5 31.7H18.5V40.7H27.5V31.7Z" fill="#BDECFF" stroke="#333333" stroke-miterlimit="10" stroke-linecap="round" stroke-linejoin="round"/>
<path d="M55.5 32.2H31.5C31.2 32.2 31 32 31 31.7C31 31.4 31.2 31.2 31.5 31.2H55.5C55.8 31.2 56 31.4 56 31.7C56 32 55.8 32.2 55.5 32.2Z" fill="#333333"/>
<path d="M55.5 36.2H31.5C31.2 36.2 31 36 31 35.7C31 35.4 31.2 35.2 31.5 35.2H55.5C55.8 35.2 56 35.4 56 35.7C56 36 55.8 36.2 55.5 36.2Z" fill="#333333"/>
<path d="M55.5 40.2H31.5C31.2 40.2 31 40 31 39.7C31 39.4 31.2 39.2 31.5 39.2H55.5C55.8 39.2 56 39.4 56 39.7C56 40 55.8 40.2 55.5 40.2Z" fill="#333333"/>
<defs>
<linearGradient id="paint0_linear" x1="25.5027" y1="24.9752" x2="48.4601" y2="24.9752" gradientUnits="userSpaceOnUse">
<stop stop-color="#FF8E3D"/>
<stop offset="1" stop-color="#FF6F3D"/>
</linearGradient>
</defs>
</svg>
