<svg width="72" height="72" viewBox="0 0 72 72" fill="none" xmlns="http://www.w3.org/2000/svg">
<path d="M36.5 66.5L11.5 54.5V39.5L36.5 50.5V66.5Z" fill="#EFEFEF" stroke="#333333" stroke-miterlimit="10" stroke-linecap="round" stroke-linejoin="round"/>
<path d="M36.5 66.5L61.5 54.5V39.5L36.5 50.5V66.5Z" fill="#EFEFEF" stroke="#333333" stroke-miterlimit="10" stroke-linecap="round" stroke-linejoin="round"/>
<path d="M11.5 39.5L36.5 30.5L61.5 39.5L36.5 50.5L11.5 39.5Z" fill="#EFEFEF" stroke="#333333" stroke-miterlimit="10" stroke-linecap="round" stroke-linejoin="round"/>
<path d="M36.5 45.5L11.5 33.5V18.5L36.5 29.5V45.5Z" fill="#BDECFF" stroke="#333333" stroke-miterlimit="10" stroke-linecap="round" stroke-linejoin="round"/>
<path d="M36.5 45.5L61.5 33.5V18.5L36.5 29.5V45.5Z" fill="#BDECFF" stroke="#333333" stroke-miterlimit="10" stroke-linecap="round" stroke-linejoin="round"/>
<path d="M11.5 18.5L36.5 9.5L61.5 18.5L36.5 29.5L11.5 18.5Z" fill="#BDECFF" stroke="#333333" stroke-miterlimit="10" stroke-linecap="round" stroke-linejoin="round"/>
<path d="M15.5 12.5V17.5C15.5 18.6 18.2 19.5 21.5 19.5C24.8 19.5 27.5 18.6 27.5 17.5V12.5H15.5Z" fill="#BDECFF" stroke="#333333" stroke-miterlimit="10" stroke-linecap="round" stroke-linejoin="round"/>
<path d="M21.5 14.5C24.8137 14.5 27.5 13.6046 27.5 12.5C27.5 11.3954 24.8137 10.5 21.5 10.5C18.1863 10.5 15.5 11.3954 15.5 12.5C15.5 13.6046 18.1863 14.5 21.5 14.5Z" fill="#BDECFF" stroke="#333333" stroke-miterlimit="10" stroke-linecap="round" stroke-linejoin="round"/>
<path d="M45.5 12.5V17.5C45.5 18.6 48.2 19.5 51.5 19.5C54.8 19.5 57.5 18.6 57.5 17.5V12.5H45.5Z" fill="#BDECFF" stroke="#333333" stroke-miterlimit="10" stroke-linecap="round" stroke-linejoin="round"/>
<path d="M51.5 14.5C54.8137 14.5 57.5 13.6046 57.5 12.5C57.5 11.3954 54.8137 10.5 51.5 10.5C48.1863 10.5 45.5 11.3954 45.5 12.5C45.5 13.6046 48.1863 14.5 51.5 14.5Z" fill="#BDECFF" stroke="#333333" stroke-miterlimit="10" stroke-linecap="round" stroke-linejoin="round"/>
<path d="M30.5 7.5V12.5C30.5 13.6 33.2 14.5 36.5 14.5C39.8 14.5 42.5 13.6 42.5 12.5V7.5H30.5Z" fill="#BDECFF" stroke="#333333" stroke-miterlimit="10" stroke-linecap="round" stroke-linejoin="round"/>
<path d="M36.5 9.5C39.8137 9.5 42.5 8.60457 42.5 7.5C42.5 6.39543 39.8137 5.5 36.5 5.5C33.1863 5.5 30.5 6.39543 30.5 7.5C30.5 8.60457 33.1863 9.5 36.5 9.5Z" fill="#BDECFF" stroke="#333333" stroke-miterlimit="10" stroke-linecap="round" stroke-linejoin="round"/>
<path d="M30.5 18.5V23.5C30.5 24.6 33.2 25.5 36.5 25.5C39.8 25.5 42.5 24.6 42.5 23.5V18.5H30.5Z" fill="#BDECFF" stroke="#333333" stroke-miterlimit="10" stroke-linecap="round" stroke-linejoin="round"/>
<path d="M36.5 20.5C39.8137 20.5 42.5 19.6046 42.5 18.5C42.5 17.3954 39.8137 16.5 36.5 16.5C33.1863 16.5 30.5 17.3954 30.5 18.5C30.5 19.6046 33.1863 20.5 36.5 20.5Z" fill="#BDECFF" stroke="#333333" stroke-miterlimit="10" stroke-linecap="round" stroke-linejoin="round"/>
</svg>
