<svg width="88" height="56" viewBox="0 0 88 56" fill="none" xmlns="http://www.w3.org/2000/svg">
<path fill-rule="evenodd" clip-rule="evenodd" d="M11.5238 -8C5.15939 -8 0 -2.53712 0 4.20168V17.5126C0 24.2514 5.15939 29.7143 11.5238 29.7143H76.4762C82.8406 29.7143 88 24.2514 88 17.5126V4.20168C88 -2.53712 82.8406 -8 76.4762 -8H11.5238ZM2.09524 4.20168C2.09524 -1.31188 6.31655 -5.78151 11.5238 -5.78151H76.4762C81.6835 -5.78151 85.9048 -1.31188 85.9048 4.20168V17.5126C85.9048 23.0262 81.6835 27.4958 76.4762 27.4958H11.5238C6.31655 27.4958 2.09524 23.0262 2.09524 17.5126V4.20168ZM11.5238 33.9048C5.15939 33.9048 0 39.3676 0 46.1064V59.4174C0 66.1562 5.15939 71.619 11.5238 71.619H76.4762C82.8406 71.619 88 66.1562 88 59.4174V46.1064C88 39.3676 82.8406 33.9048 76.4762 33.9048H11.5238ZM2.09524 46.1064C2.09524 40.5929 6.31655 36.1232 11.5238 36.1232H76.4762C81.6835 36.1232 85.9048 40.5929 85.9048 46.1064V59.4174C85.9048 64.9309 81.6835 69.4006 76.4762 69.4006H11.5238C6.31655 69.4006 2.09524 64.9309 2.09524 59.4174V46.1064ZM67.0476 7.71428C67.0476 9.45004 65.6405 10.8571 63.9048 10.8571C62.169 10.8571 60.7619 9.45004 60.7619 7.71428C60.7619 5.97853 62.169 4.57143 63.9048 4.57143C65.6405 4.57143 67.0476 5.97853 67.0476 7.71428ZM57.619 19.2381C59.3548 19.2381 60.7619 17.831 60.7619 16.0952C60.7619 14.3595 59.3548 12.9524 57.619 12.9524C55.8833 12.9524 54.4762 14.3595 54.4762 16.0952C54.4762 17.831 55.8833 19.2381 57.619 19.2381ZM67.0476 49.619C67.0476 51.3548 65.6405 52.7619 63.9048 52.7619C62.169 52.7619 60.7619 51.3548 60.7619 49.619C60.7619 47.8833 62.169 46.4762 63.9048 46.4762C65.6405 46.4762 67.0476 47.8833 67.0476 49.619ZM59.7143 61.1429C61.45 61.1429 62.8571 59.7358 62.8571 58C62.8571 56.2643 61.45 54.8571 59.7143 54.8571C57.9785 54.8571 56.5714 56.2643 56.5714 58C56.5714 59.7358 57.9785 61.1429 59.7143 61.1429ZM56.5714 7.71428C56.5714 9.45004 55.1643 10.8571 53.4286 10.8571C51.6928 10.8571 50.2857 9.45004 50.2857 7.71428C50.2857 5.97853 51.6928 4.57143 53.4286 4.57143C55.1643 4.57143 56.5714 5.97853 56.5714 7.71428ZM47.1429 19.2381C48.8786 19.2381 50.2857 17.831 50.2857 16.0952C50.2857 14.3595 48.8786 12.9524 47.1429 12.9524C45.4071 12.9524 44 14.3595 44 16.0952C44 17.831 45.4071 19.2381 47.1429 19.2381ZM56.5714 49.619C56.5714 51.3548 55.1643 52.7619 53.4286 52.7619C51.6928 52.7619 50.2857 51.3548 50.2857 49.619C50.2857 47.8833 51.6928 46.4762 53.4286 46.4762C55.1643 46.4762 56.5714 47.8833 56.5714 49.619ZM49.2381 61.1429C50.9738 61.1429 52.381 59.7358 52.381 58C52.381 56.2643 50.9738 54.8571 49.2381 54.8571C47.5023 54.8571 46.0952 56.2643 46.0952 58C46.0952 59.7358 47.5023 61.1429 49.2381 61.1429ZM77.5238 7.71428C77.5238 9.45004 76.1167 10.8571 74.381 10.8571C72.6452 10.8571 71.2381 9.45004 71.2381 7.71428C71.2381 5.97853 72.6452 4.57143 74.381 4.57143C76.1167 4.57143 77.5238 5.97853 77.5238 7.71428ZM68.0952 19.2381C69.831 19.2381 71.2381 17.831 71.2381 16.0952C71.2381 14.3595 69.831 12.9524 68.0952 12.9524C66.3595 12.9524 64.9524 14.3595 64.9524 16.0952C64.9524 17.831 66.3595 19.2381 68.0952 19.2381ZM77.5238 49.619C77.5238 51.3548 76.1167 52.7619 74.381 52.7619C72.6452 52.7619 71.2381 51.3548 71.2381 49.619C71.2381 47.8833 72.6452 46.4762 74.381 46.4762C76.1167 46.4762 77.5238 47.8833 77.5238 49.619ZM70.1905 61.1429C71.9262 61.1429 73.3333 59.7358 73.3333 58C73.3333 56.2643 71.9262 54.8571 70.1905 54.8571C68.4547 54.8571 67.0476 56.2643 67.0476 58C67.0476 59.7358 68.4547 61.1429 70.1905 61.1429Z" fill="white"/>
</svg>
