<svg width="42" height="28" viewBox="0 0 42 28" fill="none" xmlns="http://www.w3.org/2000/svg">
<rect width="42" height="28" rx="3" fill="#181818"/>
<path d="M15.9531 8H18.3984L14.5156 19.4219H11.875L8 8H10.4453L12.5938 14.7969C12.7135 15.1979 12.8359 15.6667 12.9609 16.2031C13.0911 16.7344 13.1719 17.1042 13.2031 17.3125C13.2604 16.8333 13.4557 15.9948 13.7891 14.7969L15.9531 8Z" fill="white"/>
<path d="M20.0037 19.4219V8H22.4256V19.4219H20.0037Z" fill="white"/>
<path d="M27.8825 13.375H28.6794C29.4242 13.375 29.9815 13.2292 30.3512 12.9375C30.721 12.6406 30.9059 12.2109 30.9059 11.6484C30.9059 11.0807 30.7497 10.6615 30.4372 10.3906C30.1299 10.1198 29.6455 9.98438 28.9841 9.98438H27.8825V13.375ZM33.3512 11.5625C33.3512 12.7917 32.9658 13.7318 32.195 14.3828C31.4294 15.0339 30.3382 15.3594 28.9216 15.3594H27.8825V19.4219H25.4606V8H29.1091C30.4945 8 31.5466 8.29948 32.2653 8.89844C32.9893 9.49219 33.3512 10.3802 33.3512 11.5625Z" fill="white"/>
</svg>
