<svg width="18" height="18" viewBox="0 0 18 18" fill="none" xmlns="http://www.w3.org/2000/svg">
<path d="M18 10.2857V7.71429H15.3C15.1382 6.90984 14.8193 6.14523 14.3614 5.46429L16.2771 3.54857L14.4514 1.72286L12.5357 3.63857C11.8548 3.18072 11.0902 2.86177 10.2857 2.7V0H7.71429V2.7C6.90984 2.86177 6.14523 3.18072 5.46429 3.63857L3.54857 1.72286L1.72286 3.54857L3.63857 5.46429C3.18072 6.14523 2.86177 6.90984 2.7 7.71429H0V10.2857H2.7C2.86177 11.0902 3.18072 11.8548 3.63857 12.5357L1.72286 14.4514L3.54857 16.2771L5.46429 14.3614C6.14523 14.8193 6.90984 15.1382 7.71429 15.3V18H10.2857V15.3C11.0902 15.1382 11.8548 14.8193 12.5357 14.3614L14.4514 16.2771L16.2771 14.4514L14.3614 12.5357C14.8193 11.8548 15.1382 11.0902 15.3 10.2857H18ZM9 12.8571C8.23713 12.8571 7.49139 12.6309 6.85709 12.2071C6.22278 11.7833 5.7284 11.1809 5.43646 10.4761C5.14453 9.77126 5.06814 8.99572 5.21697 8.24751C5.3658 7.4993 5.73316 6.81202 6.27259 6.27259C6.81202 5.73316 7.4993 5.3658 8.24751 5.21697C8.99572 5.06814 9.77126 5.14453 10.4761 5.43646C11.1809 5.7284 11.7833 6.22278 12.2071 6.85709C12.6309 7.49139 12.8571 8.23713 12.8571 9C12.8571 10.023 12.4508 11.0041 11.7274 11.7274C11.0041 12.4508 10.023 12.8571 9 12.8571Z" fill="#CCCCCC"/>
</svg>
